<svg width="96" height="96" viewBox="0 0 96 96" fill="none" xmlns="http://www.w3.org/2000/svg">
<path d="M82.5151 0H13.4849C6.03782 0 0 6.03651 0 13.4849V82.5151C0 89.9622 6.03651 96 13.4849 96H82.5151C89.9622 96 96 89.9635 96 82.5151V13.4849C96 6.03782 89.9635 0 82.5151 0ZM36.9879 75.068H23.4506V20.9398L36.9879 20.9307V75.0693V75.068ZM77.5892 75.068H50.5147L40.3617 64.9059V44.6301L64.052 20.9398H77.5892L53.9867 57.1733L77.5892 75.068Z" fill="#0F0F0F"/>
<path d="M36.9879 75.068H23.4506V20.9398L36.9879 20.9307V75.068Z" fill="url(#paint0_linear_906_5)"/>
<path d="M77.5892 75.068H50.5147L40.3617 64.9059V44.6301L64.052 20.9398H77.5892L53.9867 57.1733L77.5892 75.068Z" fill="url(#paint1_linear_906_5)"/>
<defs>
<linearGradient id="paint0_linear_906_5" x1="0" y1="48" x2="96" y2="48" gradientUnits="userSpaceOnUse">
<stop stop-color="#81F2DC"/>
<stop offset="1" stop-color="#B3F79A"/>
</linearGradient>
<linearGradient id="paint1_linear_906_5" x1="0" y1="48" x2="96" y2="48" gradientUnits="userSpaceOnUse">
<stop stop-color="#81F2DC"/>
<stop offset="1" stop-color="#B3F79A"/>
</linearGradient>
</defs>
</svg>
