<svg width="281" height="120" viewBox="0 0 281 120" fill="none" xmlns="http://www.w3.org/2000/svg">
<g clip-path="url(#clip0_828_23)">
<path d="M61.6777 66.9452C61.6802 66.5769 61.6066 66.212 61.4614 65.8733C61.3162 65.5346 61.1025 65.2295 60.8337 64.9768C60.5649 64.7242 60.2467 64.5295 59.899 64.4049C59.5513 64.2804 59.1816 64.2286 58.813 64.2529C58.4444 64.2772 58.0847 64.377 57.7565 64.546C57.4283 64.7151 57.1386 64.9498 56.9054 65.2355C56.6723 65.5212 56.5007 65.8518 56.4014 66.2065C56.3021 66.5613 56.2773 66.9327 56.3284 67.2975L48.6068 77.3788C48.2773 78.0358 48.1496 78.7751 48.2396 79.5041C48.3296 80.2331 48.6334 80.9195 49.1128 81.4772L49.7186 82.1817L52.4977 81.6275L55.6476 78.8566L55.277 75.7163L59.168 69.6203L59.1629 69.6159C59.844 69.5727 60.483 69.2725 60.9501 68.7764C61.4172 68.2804 61.6774 67.6256 61.6777 66.9452Z" fill="#FFB9B9"/>
<path d="M8.2802 116.232L7.01974 111.564L24.4759 104.497L26.3361 111.385L8.2802 116.232Z" fill="#FFB8B8"/>
<path d="M4.06391 118.64L0 103.591L0.190913 103.54C1.74904 103.122 3.40997 103.338 4.80839 104.14C6.2068 104.943 7.22815 106.267 7.6478 107.82L7.6479 107.82L10.13 117.012L4.06391 118.64Z" fill="#2F2E41"/>
<path d="M32.3253 115.486L28.4047 112.643L37.5366 96.2133L43.3232 100.409L32.3253 115.486Z" fill="#FFB8B8"/>
<path d="M30.5615 120L17.9194 110.834L18.0357 110.675C18.9848 109.373 20.4134 108.502 22.0072 108.251C23.601 108 25.2296 108.39 26.5347 109.336L26.535 109.336L34.2563 114.935L30.5615 120Z" fill="#2F2E41"/>
<path d="M65.6529 92.5263L55.7867 82.9708C54.9256 82.1369 53.7915 81.6409 52.5929 81.5741C51.3943 81.5074 50.2119 81.8743 49.263 82.6075L30.6342 103.24L32.3018 105.827L50.089 93.8194L62.1324 109.521L73.62 103.795L65.6529 92.5263Z" fill="#2F2E41"/>
<path d="M61.3914 94.5583L54.1653 94.0041L48.9322 92.7393C48.6366 92.2795 48.2072 91.9207 47.7015 91.711C47.1957 91.5013 46.6378 91.4506 46.1023 91.5657C45.5669 91.6809 45.0795 91.9563 44.7055 92.3553C44.3314 92.7542 44.0885 93.2575 44.0093 93.7979C43.93 94.3382 44.0183 94.8898 44.2622 95.3788C44.506 95.8678 44.8939 96.2708 45.3739 96.5339C45.8539 96.797 46.403 96.9077 46.9478 96.8511C47.4926 96.7944 48.007 96.5732 48.4223 96.2171L48.4215 96.2208L51.5714 97.5139L65.097 102.132L66.7646 100.839L61.3914 94.5583Z" fill="#FFB9B9"/>
<path d="M78.808 114.509L74.7317 117.095H69.9143L47.4951 108.782L14.6999 114.693L13.7735 107.674L43.7896 94.5583L70.0998 103.24L78.808 114.509Z" fill="#2F2E41"/>
<path d="M70.0997 69.6203C74.0905 69.6203 77.3258 66.3948 77.3258 62.416C77.3258 58.4372 74.0905 55.2117 70.0997 55.2117C66.1088 55.2117 62.8736 58.4372 62.8736 62.416C62.8736 66.3948 66.1088 69.6203 70.0997 69.6203Z" fill="#FFB9B9"/>
<path d="M88.7967 91.1796C88.7966 95.5276 88.1094 99.8483 86.7604 103.983L86.2194 105.642L83.6254 117.464L80.8462 118.203L78.8081 115.617L74.7318 112.661L71.7673 107.859L69.2252 103.636L68.4322 102.317L65.6529 88.4623L55.0917 82.5511L51.5714 81.9969L52.3125 79.9649L55.4623 75.7162L58.6121 75.3468L59.5385 74.6079L60.2797 74.9773L64.3652 76.5465L77.6111 70.9669L79.5492 71.2828L86.2194 76.8246C87.9246 81.4196 88.7972 86.2802 88.7967 91.1796Z" fill="#0F0F0F"/>
<path opacity="0.1" d="M86.7751 89.5708L79.7344 94.1888L69.2252 103.636L68.4322 102.317L66.2087 91.2333H66.7647L72.5085 80.7041L86.7751 89.5708Z" fill="black"/>
<path d="M72.5085 79.5956L66.7647 90.1248L63.4295 93.8195L60.4651 94.5584L68.4322 103.24L79.7344 93.0806L86.7751 88.4623L72.5085 79.5956Z" fill="#0F0F0F"/>
<path d="M64.4793 57.0593L63.6964 57.3596C63.5775 57.2794 63.4757 57.1766 63.3967 57.0571C63.3177 56.9377 63.2631 56.8039 63.2359 56.6633C63.2088 56.5228 63.2097 56.3784 63.2385 56.2382C63.2674 56.098 63.3237 55.9649 63.4041 55.8464C63.4083 55.8402 63.4126 55.834 63.417 55.8279L61.9702 55.7604C62.8989 54.5271 64.0798 53.5046 65.4346 52.7603C66.7894 52.0161 68.2872 51.5672 69.8291 51.4433C71.3709 51.3194 72.9216 51.5233 74.3784 52.0416C75.8353 52.5599 77.1652 53.3807 78.2801 54.4497C78.346 54.2235 79.064 54.6636 79.3572 55.1098C79.4557 54.7417 80.129 56.521 80.3671 57.7786C80.4774 57.3599 80.9013 58.0359 80.5299 58.6846C80.7652 58.6503 80.8715 59.2505 80.6893 59.5849C80.9468 59.4643 80.9034 60.1808 80.6243 60.6596C80.9916 60.6271 80.5929 68.1702 75.0803 67.6206C74.6966 65.8626 74.8047 65.9719 74.3528 63.7112C74.1425 63.4887 73.9121 63.2859 73.6821 63.0835L72.4383 61.9889C70.992 60.7161 69.6764 59.1452 67.7496 58.6695C66.4255 58.3425 65.5883 58.2687 66.3099 56.7812C65.6579 57.0524 65.0491 57.4558 64.3913 57.7077C64.4002 57.4998 64.4921 57.2672 64.4793 57.0593Z" fill="#2F2E41"/>
<path d="M73.7127 64.5404C74.429 64.5404 75.0097 63.9615 75.0097 63.2473C75.0097 62.5332 74.429 61.9542 73.7127 61.9542C72.9964 61.9542 72.4157 62.5332 72.4157 63.2473C72.4157 63.9615 72.9964 64.5404 73.7127 64.5404Z" fill="#FFB9B9"/>
<path d="M13.2296 32.7074L12.8338 38.6327L18.777 39.0273L19.1728 33.102L13.2296 32.7074Z" fill="#E6E6E6"/>
<path d="M9.39501 35.8536L16.6118 36.3328L16.1312 43.5278L8.9144 43.0487L9.39501 35.8536ZM16.2771 36.6248L9.68789 36.1873L9.24907 42.7567L15.8383 43.1942L16.2771 36.6248Z" fill="#0F0F0F"/>
<path d="M46.8157 15.137L40.9922 16.3845L42.2435 22.1905L48.0669 20.9429L46.8157 15.137Z" fill="#E6E6E6"/>
<path d="M42.7282 12.3248L44.2477 19.3749L37.1763 20.8897L35.6569 13.8397L42.7282 12.3248ZM43.8741 19.1342L42.4868 12.6972L36.0304 14.0803L37.4177 20.5174L43.8741 19.1342Z" fill="#0F0F0F"/>
<path d="M40.6966 43.0192L36.3494 47.0789L40.4213 51.413L44.7685 47.3533L40.6966 43.0192Z" fill="#E6E6E6"/>
<path d="M45.0811 42.4119L39.8023 47.3415L34.8579 42.0786L40.1366 37.149L45.0811 42.4119ZM39.8169 46.8983L44.6366 42.3974L40.1221 37.5922L35.3024 42.0931L39.8169 46.8983Z" fill="#0F0F0F"/>
<path d="M265.508 0H89.2749C88.6379 -7.21742e-07 88.0071 0.125087 87.4186 0.368122C86.8301 0.611157 86.2953 0.967377 85.8449 1.41645C85.3945 1.86552 85.0372 2.39864 84.7934 2.98538C84.5497 3.57212 84.4242 4.20098 84.4242 4.83606V102.734C84.4242 103.369 84.5497 103.998 84.7934 104.585C85.0372 105.172 85.3945 105.705 85.8449 106.154C86.2953 106.603 86.8301 106.959 87.4186 107.202C88.0071 107.445 88.6379 107.57 89.2749 107.57H265.508C266.794 107.57 268.028 107.061 268.938 106.154C269.847 105.247 270.358 104.017 270.358 102.734V4.83606C270.358 3.55346 269.847 2.32339 268.938 1.41645C268.028 0.509513 266.794 7.28815e-07 265.508 0Z" fill="#3F3D56"/>
<path d="M263.855 8.54663H90.9275V105.802H263.855V8.54663Z" fill="white"/>
<path d="M177.243 5.89422C178.223 5.89422 179.017 5.10253 179.017 4.12594C179.017 3.14935 178.223 2.35767 177.243 2.35767C176.264 2.35767 175.47 3.14935 175.47 4.12594C175.47 5.10253 176.264 5.89422 177.243 5.89422Z" fill="white"/>
<path d="M214.401 105.802H90.9274V8.54688L214.401 105.802Z" fill="#F2F2F2"/>
<path d="M117.985 98.5244C127.166 98.5244 134.608 91.1047 134.608 81.9521C134.608 72.7994 127.166 65.3798 117.985 65.3798C108.805 65.3798 101.363 72.7994 101.363 81.9521C101.363 91.1047 108.805 98.5244 117.985 98.5244Z" fill="#B3F79A"/>
<path d="M121.686 94.4078C117.596 94.4078 113.599 93.1987 110.198 90.9336C106.798 88.6685 104.148 85.449 102.583 81.6822C101.018 77.9154 100.609 73.7705 101.406 69.7718C102.204 65.773 104.174 62.0998 107.065 59.2169C109.957 56.3339 113.641 54.3706 117.652 53.5752C121.663 52.7798 125.82 53.188 129.598 54.7483C133.376 56.3085 136.606 58.9507 138.878 62.3407C141.15 65.7307 142.362 69.7163 142.362 73.7934C142.362 76.5005 141.828 79.1811 140.788 81.6822C139.749 84.1832 138.226 86.4557 136.306 88.37C134.386 90.2842 132.107 91.8026 129.598 92.8386C127.09 93.8745 124.401 94.4078 121.686 94.4078ZM121.686 53.4485C117.65 53.4485 113.704 54.6417 110.349 56.8773C106.993 59.1128 104.377 62.2902 102.833 66.0078C101.288 69.7253 100.884 73.816 101.672 77.7625C102.459 81.709 104.402 85.3341 107.256 88.1794C110.11 91.0247 113.746 92.9623 117.705 93.7474C121.663 94.5324 125.766 94.1295 129.495 92.5896C133.224 91.0498 136.411 88.4421 138.653 85.0964C140.895 81.7507 142.092 77.8173 142.092 73.7934C142.092 71.1217 141.564 68.4761 140.539 66.0078C139.513 63.5394 138.01 61.2966 136.115 59.4074C134.22 57.5182 131.971 56.0196 129.495 54.9972C127.019 53.9748 124.366 53.4485 121.686 53.4485Z" fill="#3F3D56"/>
<path d="M223.823 59.0736H207.67V62.4388H223.823V59.0736Z" fill="#3F3D56"/>
<path d="M239.105 40.8427H192.387V42.2849H239.105V40.8427Z" fill="#3F3D56"/>
<path d="M239.105 46.5088H192.387V47.951H239.105V46.5088Z" fill="#3F3D56"/>
<path d="M239.105 52.175H192.387V53.6173H239.105V52.175Z" fill="#3F3D56"/>
<path d="M251.62 14.3669H244.87V21.0973H251.62V14.3669Z" fill="#B3F79A"/>
<path d="M254.755 24.2221H246.557V16.0496H254.755V24.2221ZM246.914 23.8668H254.398V16.4049H246.914L246.914 23.8668Z" fill="#0F0F0F"/>
<path d="M275.214 104.034H258.337V102.821C258.337 102.79 258.331 102.759 258.319 102.729C258.307 102.7 258.289 102.674 258.267 102.651C258.244 102.629 258.218 102.611 258.188 102.599C258.159 102.587 258.128 102.581 258.096 102.581H252.31C252.278 102.581 252.247 102.587 252.217 102.599C252.188 102.611 252.162 102.629 252.139 102.651C252.117 102.674 252.099 102.7 252.087 102.729C252.075 102.759 252.069 102.79 252.069 102.821V104.034H248.452V102.821C248.452 102.79 248.446 102.759 248.434 102.729C248.422 102.7 248.404 102.674 248.382 102.651C248.359 102.629 248.333 102.611 248.303 102.599C248.274 102.587 248.243 102.581 248.211 102.581H242.425C242.393 102.581 242.362 102.587 242.333 102.599C242.303 102.611 242.277 102.629 242.254 102.651C242.232 102.674 242.214 102.7 242.202 102.729C242.19 102.759 242.184 102.79 242.184 102.821V104.034H238.567V102.821C238.567 102.79 238.561 102.759 238.549 102.729C238.537 102.7 238.519 102.674 238.497 102.651C238.474 102.629 238.448 102.611 238.419 102.599C238.389 102.587 238.358 102.581 238.326 102.581H232.54C232.508 102.581 232.477 102.587 232.448 102.599C232.419 102.611 232.392 102.629 232.37 102.651C232.347 102.674 232.329 102.7 232.317 102.729C232.305 102.759 232.299 102.79 232.299 102.821V104.034H228.683V102.821C228.683 102.79 228.676 102.759 228.664 102.729C228.652 102.7 228.634 102.674 228.612 102.651C228.59 102.629 228.563 102.611 228.534 102.599C228.504 102.587 228.473 102.581 228.441 102.581H222.655C222.624 102.581 222.592 102.587 222.563 102.599C222.534 102.611 222.507 102.629 222.485 102.651C222.462 102.674 222.445 102.7 222.432 102.729C222.42 102.759 222.414 102.79 222.414 102.821V104.034H218.798V102.821C218.798 102.79 218.791 102.759 218.779 102.729C218.767 102.7 218.749 102.674 218.727 102.651C218.705 102.629 218.678 102.611 218.649 102.599C218.62 102.587 218.588 102.581 218.557 102.581H212.77C212.739 102.581 212.707 102.587 212.678 102.599C212.649 102.611 212.622 102.629 212.6 102.651C212.577 102.674 212.56 102.7 212.548 102.729C212.535 102.759 212.529 102.79 212.529 102.821V104.034H208.913V102.821C208.913 102.79 208.907 102.759 208.894 102.729C208.882 102.7 208.865 102.674 208.842 102.651C208.82 102.629 208.793 102.611 208.764 102.599C208.735 102.587 208.703 102.581 208.672 102.581H202.885C202.854 102.581 202.822 102.587 202.793 102.599C202.764 102.611 202.737 102.629 202.715 102.651C202.693 102.674 202.675 102.7 202.663 102.729C202.651 102.759 202.644 102.79 202.644 102.821V104.034H199.028V102.821C199.028 102.79 199.022 102.759 199.01 102.729C198.997 102.7 198.98 102.674 198.957 102.651C198.935 102.629 198.908 102.611 198.879 102.599C198.85 102.587 198.818 102.581 198.787 102.581H153.461C153.429 102.581 153.398 102.587 153.369 102.599C153.34 102.611 153.313 102.629 153.291 102.651C153.268 102.674 153.25 102.7 153.238 102.729C153.226 102.759 153.22 102.79 153.22 102.821V104.034H149.604V102.821C149.604 102.79 149.597 102.759 149.585 102.729C149.573 102.7 149.555 102.674 149.533 102.651C149.511 102.629 149.484 102.611 149.455 102.599C149.425 102.587 149.394 102.581 149.362 102.581H143.576C143.545 102.581 143.513 102.587 143.484 102.599C143.455 102.611 143.428 102.629 143.406 102.651C143.383 102.674 143.366 102.7 143.353 102.729C143.341 102.759 143.335 102.79 143.335 102.821V104.034H139.719V102.821C139.719 102.79 139.712 102.759 139.7 102.729C139.688 102.7 139.67 102.674 139.648 102.651C139.626 102.629 139.599 102.611 139.57 102.599C139.541 102.587 139.509 102.581 139.478 102.581H133.691C133.66 102.581 133.628 102.587 133.599 102.599C133.57 102.611 133.543 102.629 133.521 102.651C133.498 102.674 133.481 102.7 133.469 102.729C133.456 102.759 133.45 102.79 133.45 102.821V104.034H129.834V102.821C129.834 102.79 129.828 102.759 129.815 102.729C129.803 102.7 129.786 102.674 129.763 102.651C129.741 102.629 129.714 102.611 129.685 102.599C129.656 102.587 129.624 102.581 129.593 102.581H123.806C123.775 102.581 123.743 102.587 123.714 102.599C123.685 102.611 123.658 102.629 123.636 102.651C123.614 102.674 123.596 102.7 123.584 102.729C123.572 102.759 123.565 102.79 123.565 102.821V104.034H119.949V102.821C119.949 102.79 119.943 102.759 119.931 102.729C119.918 102.7 119.901 102.674 119.878 102.651C119.856 102.629 119.829 102.611 119.8 102.599C119.771 102.587 119.74 102.581 119.708 102.581H113.922C113.89 102.581 113.859 102.587 113.829 102.599C113.8 102.611 113.773 102.629 113.751 102.651C113.729 102.674 113.711 102.7 113.699 102.729C113.687 102.759 113.68 102.79 113.68 102.821V104.034H110.064V102.821C110.064 102.79 110.058 102.759 110.046 102.729C110.034 102.7 110.016 102.674 109.993 102.651C109.971 102.629 109.944 102.611 109.915 102.599C109.886 102.587 109.855 102.581 109.823 102.581H104.037C103.973 102.581 103.911 102.606 103.866 102.651C103.821 102.697 103.796 102.758 103.796 102.821V104.034H100.179V102.821C100.179 102.79 100.173 102.759 100.161 102.729C100.149 102.7 100.131 102.674 100.109 102.651C100.086 102.629 100.06 102.611 100.03 102.599C100.001 102.587 99.9698 102.581 99.9381 102.581H94.1518C94.0879 102.581 94.0266 102.606 93.9813 102.651C93.9361 102.697 93.9107 102.758 93.9107 102.821V104.034H82.8204C81.2858 104.034 79.814 104.642 78.7289 105.723C77.6437 106.805 77.0341 108.273 77.0341 109.803V112.411C77.0341 113.941 77.6437 115.408 78.7289 116.49C79.814 117.572 81.2858 118.18 82.8204 118.18H275.214C276.748 118.18 278.22 117.572 279.305 116.49C280.39 115.408 281 113.941 281 112.411V109.803C281 109.045 280.85 108.295 280.56 107.595C280.269 106.895 279.843 106.259 279.305 105.723C278.768 105.188 278.13 104.763 277.428 104.473C276.726 104.183 275.974 104.034 275.214 104.034Z" fill="#3F3D56"/>
</g>
<defs>
<clipPath id="clip0_828_23">
<rect width="281" height="120" fill="white"/>
</clipPath>
</defs>
</svg>
