<svg width="117" height="108" viewBox="0 0 117 108" fill="none" xmlns="http://www.w3.org/2000/svg">
<path id="Vector" d="M2.10452 1.07093C2.10452 1.29 2.0175 1.5001 1.8626 1.65501C1.70769 1.80992 1.49759 1.89695 1.27852 1.89695C1.05945 1.89695 0.849347 1.80992 0.694441 1.65501C0.539535 1.5001 0.452515 1.29 0.452515 1.07093C0.452515 0.851852 0.539535 0.641749 0.694441 0.48684C0.849347 0.331931 1.05945 0.244904 1.27852 0.244904C1.49759 0.244904 1.70769 0.331931 1.8626 0.48684C2.0175 0.641749 2.10452 0.851852 2.10452 1.07093ZM12.5502 1.07093C12.5502 1.29015 12.4631 1.50039 12.3081 1.6554C12.1531 1.81042 11.9428 1.8975 11.7236 1.8975C11.5044 1.8975 11.2942 1.81042 11.1392 1.6554C10.9841 1.50039 10.8971 1.29015 10.8971 1.07093C10.8971 0.851779 10.9841 0.641607 11.1391 0.486646C11.294 0.331685 11.5042 0.244629 11.7233 0.244629C11.9425 0.244629 12.1526 0.331685 12.3076 0.486646C12.4626 0.641607 12.5496 0.851779 12.5496 1.07093H12.5502ZM22.9947 1.07093C22.9947 1.29008 22.9077 1.50025 22.7527 1.65521C22.5977 1.81017 22.3876 1.89723 22.1684 1.89723C21.9493 1.89723 21.7391 1.81017 21.5842 1.65521C21.4292 1.50025 21.3421 1.29008 21.3421 1.07093C21.3421 0.851852 21.4292 0.641749 21.5841 0.48684C21.739 0.331931 21.9491 0.244904 22.1682 0.244904C22.3872 0.244904 22.5973 0.331931 22.7522 0.48684C22.9071 0.641749 22.9942 0.851852 22.9942 1.07093H22.9947ZM33.4398 1.07093C33.4398 1.29008 33.3527 1.50025 33.1978 1.65521C33.0428 1.81017 32.8327 1.89723 32.6135 1.89723C32.3944 1.89723 32.1842 1.81017 32.0293 1.65521C31.8743 1.50025 31.7872 1.29008 31.7872 1.07093C31.7872 0.851852 31.8743 0.641749 32.0292 0.48684C32.1841 0.331931 32.3942 0.244904 32.6132 0.244904C32.8323 0.244904 33.0424 0.331931 33.1973 0.48684C33.3522 0.641749 33.4392 0.851852 33.4392 1.07093H33.4398ZM43.8843 1.07093C43.8843 1.29 43.7973 1.5001 43.6424 1.65501C43.4875 1.80992 43.2774 1.89695 43.0583 1.89695C42.8393 1.89695 42.6292 1.80992 42.4743 1.65501C42.3194 1.5001 42.2323 1.29 42.2323 1.07093C42.2323 0.851852 42.3194 0.641749 42.4743 0.48684C42.6292 0.331931 42.8393 0.244904 43.0583 0.244904C43.2774 0.244904 43.4875 0.331931 43.6424 0.48684C43.7973 0.641749 43.8843 0.851852 43.8843 1.07093ZM54.3294 1.07093C54.3294 1.29 54.2424 1.5001 54.0875 1.65501C53.9326 1.80992 53.7225 1.89695 53.5034 1.89695C53.2844 1.89695 53.0743 1.80992 52.9194 1.65501C52.7645 1.5001 52.6774 1.29 52.6774 1.07093C52.6774 0.851852 52.7645 0.641749 52.9194 0.48684C53.0743 0.331931 53.2844 0.244904 53.5034 0.244904C53.7225 0.244904 53.9326 0.331931 54.0875 0.48684C54.2424 0.641749 54.3294 0.851852 54.3294 1.07093ZM64.7745 1.07093C64.7745 1.29 64.6875 1.5001 64.5326 1.65501C64.3777 1.80992 64.1676 1.89695 63.9485 1.89695C63.7295 1.89695 63.5194 1.80992 63.3645 1.65501C63.2095 1.5001 63.1225 1.29 63.1225 1.07093C63.1225 0.851852 63.2095 0.641749 63.3645 0.48684C63.5194 0.331931 63.7295 0.244904 63.9485 0.244904C64.1676 0.244904 64.3777 0.331931 64.5326 0.48684C64.6875 0.641749 64.7745 0.851852 64.7745 1.07093ZM75.2202 1.07093C75.2202 1.29008 75.1331 1.50025 74.9782 1.65521C74.8232 1.81017 74.613 1.89723 74.3939 1.89723C74.1748 1.89723 73.9646 1.81017 73.8096 1.65521C73.6547 1.50025 73.5676 1.29008 73.5676 1.07093C73.5676 0.851852 73.6546 0.641749 73.8095 0.48684C73.9644 0.331931 74.1745 0.244904 74.3936 0.244904C74.6127 0.244904 74.8228 0.331931 74.9777 0.48684C75.1326 0.641749 75.2196 0.851852 75.2196 1.07093H75.2202ZM85.6647 1.07093C85.6647 1.29 85.5777 1.5001 85.4228 1.65501C85.2679 1.80992 85.0578 1.89695 84.8387 1.89695C84.6197 1.89695 84.4095 1.80992 84.2546 1.65501C84.0997 1.5001 84.0127 1.29 84.0127 1.07093C84.0127 0.851852 84.0997 0.641749 84.2546 0.48684C84.4095 0.331931 84.6197 0.244904 84.8387 0.244904C85.0578 0.244904 85.2679 0.331931 85.4228 0.48684C85.5777 0.641749 85.6647 0.851852 85.6647 1.07093ZM96.1098 1.07093C96.1098 1.29 96.0228 1.5001 95.8679 1.65501C95.713 1.80992 95.5029 1.89695 95.2838 1.89695C95.0647 1.89695 94.8546 1.80992 94.6997 1.65501C94.5448 1.5001 94.4578 1.29 94.4578 1.07093C94.4578 0.851852 94.5448 0.641749 94.6997 0.48684C94.8546 0.331931 95.0647 0.244904 95.2838 0.244904C95.5029 0.244904 95.713 0.331931 95.8679 0.48684C96.0228 0.641749 96.1098 0.851852 96.1098 1.07093ZM106.555 1.07093C106.555 1.29008 106.468 1.50025 106.313 1.65521C106.158 1.81017 105.948 1.89723 105.729 1.89723C105.509 1.89723 105.299 1.81017 105.144 1.65521C104.989 1.50025 104.902 1.29008 104.902 1.07093C104.902 0.851779 104.989 0.641607 105.144 0.486646C105.299 0.331685 105.509 0.244629 105.729 0.244629C105.948 0.244629 106.158 0.331685 106.313 0.486646C106.468 0.641607 106.555 0.851779 106.555 1.07093ZM117 1.07093C117 1.29008 116.913 1.50025 116.758 1.65521C116.603 1.81017 116.393 1.89723 116.174 1.89723C115.955 1.89723 115.744 1.81017 115.589 1.65521C115.435 1.50025 115.347 1.29008 115.347 1.07093C115.347 0.851852 115.434 0.641749 115.589 0.48684C115.744 0.331931 115.954 0.244904 116.173 0.244904C116.393 0.244904 116.603 0.331931 116.758 0.48684C116.912 0.641749 117 0.851852 117 1.07093ZM2.10452 11.6567C2.10445 11.8758 2.01735 12.0858 1.86239 12.2407C1.70744 12.3956 1.49732 12.4825 1.27825 12.4824C1.05918 12.4824 0.84911 12.3953 0.694256 12.2403C0.539402 12.0853 0.452442 11.8752 0.452515 11.6561C0.452551 11.5477 0.473956 11.4403 0.5155 11.3401C0.557044 11.2399 0.617915 11.1488 0.694643 11.0721C0.77137 10.9955 0.862438 10.9346 0.962667 10.8932C1.0629 10.8517 1.17032 10.8304 1.27879 10.8304C1.38726 10.8304 1.49467 10.8518 1.59487 10.8934C1.69508 10.9349 1.78611 10.9958 1.86278 11.0725C1.93946 11.1493 2.00028 11.2403 2.04176 11.3406C2.08323 11.4408 2.10456 11.5482 2.10452 11.6567ZM12.5502 11.6567C12.5501 11.8759 12.4629 12.0861 12.3079 12.2411C12.1528 12.396 11.9426 12.4831 11.7233 12.483C11.5041 12.4829 11.2939 12.3958 11.139 12.2407C10.984 12.0856 10.897 11.8754 10.8971 11.6561C10.8971 11.437 10.9842 11.2268 11.1393 11.0719C11.2943 10.917 11.5045 10.83 11.7236 10.8301C11.9427 10.8302 12.1529 10.9173 12.3078 11.0723C12.4627 11.2273 12.5497 11.4375 12.5496 11.6567H12.5502ZM22.9947 11.6567C22.9947 11.7652 22.9733 11.8726 22.9317 11.9729C22.8902 12.0731 22.8293 12.1642 22.7525 12.2409C22.6757 12.3176 22.5846 12.3784 22.4844 12.4199C22.3841 12.4614 22.2767 12.4827 22.1682 12.4827C22.0596 12.4827 21.9522 12.4613 21.852 12.4197C21.7517 12.3781 21.6607 12.3173 21.584 12.2405C21.5073 12.1637 21.4464 12.0726 21.4049 11.9724C21.3634 11.8721 21.3421 11.7646 21.3421 11.6561C21.3422 11.4371 21.4293 11.227 21.5843 11.0721C21.7392 10.9173 21.9494 10.8303 22.1684 10.8304C22.3875 10.8305 22.5976 10.9176 22.7524 11.0725C22.9073 11.2275 22.9942 11.4376 22.9942 11.6567H22.9947ZM33.4398 11.6567C33.4398 11.7652 33.4184 11.8726 33.3768 11.9729C33.3352 12.0731 33.2744 12.1642 33.1976 12.2409C33.1208 12.3176 33.0297 12.3784 32.9295 12.4199C32.8292 12.4614 32.7217 12.4827 32.6132 12.4827C32.5047 12.4827 32.3973 12.4613 32.2971 12.4197C32.1968 12.3781 32.1058 12.3173 32.0291 12.2405C31.9524 12.1637 31.8915 12.0726 31.85 11.9724C31.8085 11.8721 31.7872 11.7646 31.7872 11.6561C31.7873 11.5477 31.8087 11.4403 31.8502 11.3401C31.8918 11.2399 31.9526 11.1488 32.0294 11.0721C32.1061 10.9955 32.1972 10.9346 32.2974 10.8932C32.3976 10.8517 32.5051 10.8304 32.6135 10.8304C32.722 10.8304 32.8294 10.8518 32.9296 10.8934C33.0298 10.9349 33.1208 10.9958 33.1975 11.0725C33.2742 11.1493 33.335 11.2403 33.3765 11.3406C33.418 11.4408 33.4393 11.5482 33.4392 11.6567H33.4398ZM43.8843 11.6567C43.8843 11.8758 43.7973 12.0859 43.6424 12.2408C43.4875 12.3957 43.2774 12.4827 43.0583 12.4827C42.8393 12.4827 42.6292 12.3957 42.4743 12.2408C42.3194 12.0859 42.2323 11.8758 42.2323 11.6567C42.2323 11.4376 42.3194 11.2275 42.4743 11.0726C42.6292 10.9177 42.8393 10.8307 43.0583 10.8307C43.2774 10.8307 43.4875 10.9177 43.6424 11.0726C43.7973 11.2275 43.8843 11.4376 43.8843 11.6567ZM54.3294 11.6567C54.3294 11.8758 54.2424 12.0859 54.0875 12.2408C53.9326 12.3957 53.7225 12.4827 53.5034 12.4827C53.2844 12.4827 53.0743 12.3957 52.9194 12.2408C52.7645 12.0859 52.6774 11.8758 52.6774 11.6567C52.6774 11.4376 52.7645 11.2275 52.9194 11.0726C53.0743 10.9177 53.2844 10.8307 53.5034 10.8307C53.7225 10.8307 53.9326 10.9177 54.0875 11.0726C54.2424 11.2275 54.3294 11.4376 54.3294 11.6567ZM64.7745 11.6567C64.7745 11.8758 64.6875 12.0859 64.5326 12.2408C64.3777 12.3957 64.1676 12.4827 63.9485 12.4827C63.7295 12.4827 63.5194 12.3957 63.3645 12.2408C63.2095 12.0859 63.1225 11.8758 63.1225 11.6567C63.1225 11.4376 63.2095 11.2275 63.3645 11.0726C63.5194 10.9177 63.7295 10.8307 63.9485 10.8307C64.1676 10.8307 64.3777 10.9177 64.5326 11.0726C64.6875 11.2275 64.7745 11.4376 64.7745 11.6567ZM75.2202 11.6567C75.2201 11.7652 75.1987 11.8726 75.1572 11.9729C75.1156 12.0731 75.0547 12.1642 74.978 12.2409C74.9012 12.3176 74.8101 12.3784 74.7098 12.4199C74.6096 12.4614 74.5021 12.4827 74.3936 12.4827C74.2851 12.4827 74.1777 12.4613 74.0774 12.4197C73.9772 12.3781 73.8861 12.3173 73.8094 12.2405C73.7327 12.1637 73.6719 12.0726 73.6304 11.9724C73.5889 11.8721 73.5676 11.7646 73.5676 11.6561C73.5676 11.5477 73.5891 11.4403 73.6306 11.3401C73.6721 11.2399 73.733 11.1488 73.8097 11.0721C73.8865 10.9955 73.9776 10.9346 74.0778 10.8932C74.178 10.8517 74.2854 10.8304 74.3939 10.8304C74.5024 10.8304 74.6098 10.8518 74.71 10.8934C74.8102 10.9349 74.9012 10.9958 74.9779 11.0725C75.0546 11.1493 75.1154 11.2403 75.1569 11.3406C75.1983 11.4408 75.2197 11.5482 75.2196 11.6567H75.2202ZM85.6647 11.6567C85.6647 11.7652 85.6433 11.8726 85.6017 11.9728C85.5602 12.073 85.4993 12.164 85.4226 12.2407C85.3459 12.3174 85.2548 12.3782 85.1546 12.4197C85.0543 12.4611 84.9469 12.4825 84.8384 12.4824C84.73 12.4824 84.6226 12.461 84.5224 12.4195C84.4222 12.3779 84.3311 12.317 84.2544 12.2403C84.1778 12.1636 84.117 12.0725 84.0755 11.9723C84.034 11.872 84.0127 11.7646 84.0127 11.6561C84.0128 11.4371 84.0999 11.227 84.2548 11.0721C84.4098 10.9173 84.6199 10.8303 84.839 10.8304C85.0581 10.8305 85.2681 10.9176 85.423 11.0725C85.5778 11.2275 85.6648 11.4376 85.6647 11.6567ZM96.1098 11.6567C96.1097 11.8758 96.0226 12.0858 95.8677 12.2407C95.7127 12.3956 95.5026 12.4825 95.2835 12.4824C95.0645 12.4824 94.8544 12.3953 94.6995 12.2403C94.5447 12.0853 94.4577 11.8752 94.4578 11.6561C94.4578 11.5477 94.4792 11.4403 94.5208 11.3401C94.5623 11.2399 94.6232 11.1488 94.6999 11.0721C94.7767 10.9955 94.8677 10.9346 94.968 10.8932C95.0682 10.8517 95.1756 10.8304 95.2841 10.8304C95.3925 10.8304 95.5 10.8518 95.6002 10.8934C95.7004 10.9349 95.7914 10.9958 95.8681 11.0725C95.9447 11.1493 96.0056 11.2403 96.047 11.3406C96.0885 11.4408 96.1098 11.5482 96.1098 11.6567ZM106.555 11.6567C106.555 11.7652 106.533 11.8726 106.492 11.9729C106.45 12.0731 106.389 12.1642 106.313 12.2409C106.236 12.3176 106.145 12.3784 106.045 12.4199C105.944 12.4614 105.837 12.4827 105.728 12.4827C105.62 12.4827 105.512 12.4613 105.412 12.4197C105.312 12.3781 105.221 12.3173 105.144 12.2405C105.067 12.1637 105.007 12.0726 104.965 11.9724C104.924 11.8721 104.902 11.7646 104.902 11.6561C104.902 11.437 104.99 11.2268 105.145 11.0719C105.3 10.917 105.51 10.83 105.729 10.8301C105.948 10.8302 106.158 10.9173 106.313 11.0723C106.468 11.2273 106.555 11.4375 106.555 11.6567ZM117 11.6567C117 11.7652 116.979 11.8726 116.937 11.9729C116.895 12.0731 116.835 12.1642 116.758 12.2409C116.681 12.3176 116.59 12.3784 116.49 12.4199C116.389 12.4614 116.282 12.4827 116.173 12.4827C116.065 12.4827 115.958 12.4613 115.857 12.4197C115.757 12.3781 115.666 12.3173 115.589 12.2405C115.513 12.1637 115.452 12.0726 115.41 11.9724C115.369 11.8721 115.347 11.7646 115.347 11.6561C115.348 11.4371 115.435 11.227 115.59 11.0721C115.745 10.9173 115.955 10.8303 116.174 10.8304C116.393 10.8305 116.603 10.9176 116.758 11.0725C116.913 11.2275 117 11.4376 117 11.6567ZM2.10452 22.2424C2.10452 22.4615 2.0175 22.6716 1.8626 22.8265C1.70769 22.9814 1.49759 23.0685 1.27852 23.0685C1.05945 23.0685 0.849347 22.9814 0.694441 22.8265C0.539535 22.6716 0.452515 22.4615 0.452515 22.2424C0.452515 22.0234 0.539535 21.8133 0.694441 21.6584C0.849347 21.5035 1.05945 21.4164 1.27852 21.4164C1.49759 21.4164 1.70769 21.5035 1.8626 21.6584C2.0175 21.8133 2.10452 22.0234 2.10452 22.2424ZM12.5502 22.2424C12.5502 22.4615 12.4631 22.6716 12.3082 22.8265C12.1533 22.9814 11.9432 23.0685 11.7242 23.0685C11.5051 23.0685 11.295 22.9814 11.1401 22.8265C10.9852 22.6716 10.8982 22.4615 10.8982 22.2424C10.8982 22.0234 10.9852 21.8133 11.1401 21.6584C11.295 21.5035 11.5051 21.4164 11.7242 21.4164C11.9432 21.4164 12.1533 21.5035 12.3082 21.6584C12.4631 21.8133 12.5502 22.0234 12.5502 22.2424ZM22.9947 22.2424C22.9947 22.4615 22.9077 22.6716 22.7528 22.8265C22.5979 22.9814 22.3878 23.0685 22.1687 23.0685C21.9496 23.0685 21.7395 22.9814 21.5846 22.8265C21.4297 22.6716 21.3427 22.4615 21.3427 22.2424C21.3427 22.0234 21.4297 21.8133 21.5846 21.6584C21.7395 21.5035 21.9496 21.4164 22.1687 21.4164C22.3878 21.4164 22.5979 21.5035 22.7528 21.6584C22.9077 21.8133 22.9947 22.0234 22.9947 22.2424ZM33.4398 22.2424C33.4398 22.4615 33.3528 22.6716 33.1979 22.8265C33.043 22.9814 32.8329 23.0685 32.6138 23.0685C32.3947 23.0685 32.1846 22.9814 32.0297 22.8265C31.8748 22.6716 31.7878 22.4615 31.7878 22.2424C31.7878 22.0234 31.8748 21.8133 32.0297 21.6584C32.1846 21.5035 32.3947 21.4164 32.6138 21.4164C32.8329 21.4164 33.043 21.5035 33.1979 21.6584C33.3528 21.8133 33.4398 22.0234 33.4398 22.2424ZM43.8843 22.2424C43.8884 22.3534 43.8701 22.464 43.8305 22.5677C43.7909 22.6714 43.7308 22.7661 43.6537 22.846C43.5767 22.926 43.4844 22.9895 43.3822 23.033C43.2801 23.0765 43.1702 23.0989 43.0592 23.0989C42.9482 23.0989 42.8383 23.0766 42.7361 23.0332C42.6339 22.9898 42.5415 22.9263 42.4645 22.8464C42.3874 22.7665 42.3272 22.6719 42.2875 22.5682C42.2478 22.4646 42.2294 22.3539 42.2334 22.243C42.2412 22.0293 42.3315 21.8269 42.4854 21.6784C42.6393 21.5299 42.8448 21.4469 43.0586 21.4469C43.2725 21.4468 43.478 21.5297 43.632 21.678C43.786 21.8264 43.8765 22.0287 43.8843 22.2424ZM54.3294 22.2424C54.3335 22.3534 54.3152 22.464 54.2756 22.5677C54.236 22.6714 54.1759 22.7661 54.0988 22.846C54.0218 22.926 53.9295 22.9895 53.8273 23.033C53.7251 23.0765 53.6153 23.0989 53.5043 23.0989C53.3933 23.0989 53.2834 23.0766 53.1812 23.0332C53.079 22.9898 52.9866 22.9263 52.9096 22.8464C52.8325 22.7665 52.7723 22.6719 52.7326 22.5682C52.6929 22.4646 52.6745 22.3539 52.6785 22.243C52.6863 22.0293 52.7766 21.8269 52.9305 21.6784C53.0844 21.5299 53.2899 21.4469 53.5037 21.4469C53.7176 21.4468 53.9231 21.5297 54.0771 21.678C54.2311 21.8264 54.3216 22.0287 54.3294 22.2424ZM64.7745 22.2424C64.7774 22.3527 64.7582 22.4624 64.718 22.5651C64.6778 22.6677 64.6175 22.7614 64.5406 22.8404C64.4636 22.9193 64.3717 22.9821 64.2701 23.025C64.1685 23.0679 64.0594 23.09 63.9491 23.0901C63.8388 23.0901 63.7297 23.0681 63.628 23.0252C63.5264 22.9824 63.4344 22.9197 63.3574 22.8407C63.2805 22.7618 63.2201 22.6682 63.1798 22.5656C63.1395 22.4629 63.1203 22.3532 63.1231 22.243C63.1286 22.0277 63.2179 21.823 63.3721 21.6727C63.5263 21.5223 63.7332 21.4381 63.9485 21.438C64.1639 21.438 64.3708 21.522 64.5251 21.6723C64.6794 21.8225 64.7689 22.0271 64.7745 22.2424ZM75.2202 22.2424C75.2202 22.4615 75.1332 22.6716 74.9782 22.8265C74.8233 22.9814 74.6132 23.0685 74.3942 23.0685C74.1751 23.0685 73.965 22.9814 73.8101 22.8265C73.6552 22.6716 73.5682 22.4615 73.5682 22.2424C73.5682 22.0234 73.6552 21.8133 73.8101 21.6584C73.965 21.5035 74.1751 21.4164 74.3942 21.4164C74.6132 21.4164 74.8233 21.5035 74.9782 21.6584C75.1332 21.8133 75.2202 22.0234 75.2202 22.2424ZM85.6647 22.2424C85.6647 22.4615 85.5777 22.6716 85.4228 22.8265C85.2679 22.9814 85.0578 23.0685 84.8387 23.0685C84.6197 23.0685 84.4095 22.9814 84.2546 22.8265C84.0997 22.6716 84.0127 22.4615 84.0127 22.2424C84.0127 22.0234 84.0997 21.8133 84.2546 21.6584C84.4095 21.5035 84.6197 21.4164 84.8387 21.4164C85.0578 21.4164 85.2679 21.5035 85.4228 21.6584C85.5777 21.8133 85.6647 22.0234 85.6647 22.2424ZM96.1098 22.2424C96.1098 22.4615 96.0228 22.6716 95.8679 22.8265C95.713 22.9814 95.5029 23.0685 95.2838 23.0685C95.0647 23.0685 94.8546 22.9814 94.6997 22.8265C94.5448 22.6716 94.4578 22.4615 94.4578 22.2424C94.4578 22.0234 94.5448 21.8133 94.6997 21.6584C94.8546 21.5035 95.0647 21.4164 95.2838 21.4164C95.5029 21.4164 95.713 21.5035 95.8679 21.6584C96.0228 21.8133 96.1098 22.0234 96.1098 22.2424ZM106.555 22.2424C106.555 22.4615 106.468 22.6716 106.313 22.8265C106.158 22.9814 105.948 23.0685 105.729 23.0685C105.51 23.0685 105.3 22.9814 105.145 22.8265C104.99 22.6716 104.903 22.4615 104.903 22.2424C104.903 22.0234 104.99 21.8133 105.145 21.6584C105.3 21.5035 105.51 21.4164 105.729 21.4164C105.948 21.4164 106.158 21.5035 106.313 21.6584C106.468 21.8133 106.555 22.0234 106.555 22.2424ZM117 22.2424C117 22.4615 116.913 22.6716 116.758 22.8265C116.603 22.9814 116.393 23.0685 116.174 23.0685C115.955 23.0685 115.745 22.9814 115.59 22.8265C115.435 22.6716 115.348 22.4615 115.348 22.2424C115.348 22.0234 115.435 21.8133 115.59 21.6584C115.745 21.5035 115.955 21.4164 116.174 21.4164C116.393 21.4164 116.603 21.5035 116.758 21.6584C116.913 21.8133 117 22.0234 117 22.2424ZM2.10452 32.8282C2.10452 33.0473 2.0175 33.2574 1.8626 33.4123C1.70769 33.5672 1.49759 33.6542 1.27852 33.6542C1.05945 33.6542 0.849347 33.5672 0.694441 33.4123C0.539535 33.2574 0.452515 33.0473 0.452515 32.8282C0.452515 32.6091 0.539535 32.399 0.694441 32.2441C0.849347 32.0892 1.05945 32.0022 1.27852 32.0022C1.49759 32.0022 1.70769 32.0892 1.8626 32.2441C2.0175 32.399 2.10452 32.6091 2.10452 32.8282ZM12.5502 32.8282C12.5502 33.0474 12.4631 33.2577 12.3081 33.4127C12.1531 33.5677 11.9428 33.6548 11.7236 33.6548C11.5044 33.6548 11.2942 33.5677 11.1392 33.4127C10.9841 33.2577 10.8971 33.0474 10.8971 32.8282C10.8971 32.6091 10.9841 32.3989 11.1391 32.2439C11.294 32.089 11.5042 32.0019 11.7233 32.0019C11.9425 32.0019 12.1526 32.089 12.3076 32.2439C12.4626 32.3989 12.5496 32.6091 12.5496 32.8282H12.5502ZM22.9947 32.8282C22.9947 33.0474 22.9077 33.2575 22.7527 33.4125C22.5977 33.5675 22.3876 33.6545 22.1684 33.6545C21.9493 33.6545 21.7391 33.5675 21.5842 33.4125C21.4292 33.2575 21.3421 33.0474 21.3421 32.8282C21.3421 32.6091 21.4292 32.399 21.5841 32.2441C21.739 32.0892 21.9491 32.0022 22.1682 32.0022C22.3872 32.0022 22.5973 32.0892 22.7522 32.2441C22.9071 32.399 22.9942 32.6091 22.9942 32.8282H22.9947ZM33.4398 32.8282C33.4398 33.0474 33.3527 33.2575 33.1978 33.4125C33.0428 33.5675 32.8327 33.6545 32.6135 33.6545C32.3944 33.6545 32.1842 33.5675 32.0293 33.4125C31.8743 33.2575 31.7872 33.0474 31.7872 32.8282C31.7872 32.6091 31.8743 32.399 32.0292 32.2441C32.1841 32.0892 32.3942 32.0022 32.6132 32.0022C32.8323 32.0022 33.0424 32.0892 33.1973 32.2441C33.3522 32.399 33.4392 32.6091 33.4392 32.8282H33.4398ZM43.8843 32.8282C43.8843 33.0473 43.7973 33.2574 43.6424 33.4123C43.4875 33.5672 43.2774 33.6542 43.0583 33.6542C42.8393 33.6542 42.6292 33.5672 42.4743 33.4123C42.3194 33.2574 42.2323 33.0473 42.2323 32.8282C42.2323 32.6091 42.3194 32.399 42.4743 32.2441C42.6292 32.0892 42.8393 32.0022 43.0583 32.0022C43.2774 32.0022 43.4875 32.0892 43.6424 32.2441C43.7973 32.399 43.8843 32.6091 43.8843 32.8282ZM54.3294 32.8282C54.3294 33.0473 54.2424 33.2574 54.0875 33.4123C53.9326 33.5672 53.7225 33.6542 53.5034 33.6542C53.2844 33.6542 53.0743 33.5672 52.9194 33.4123C52.7645 33.2574 52.6774 33.0473 52.6774 32.8282C52.6774 32.6091 52.7645 32.399 52.9194 32.2441C53.0743 32.0892 53.2844 32.0022 53.5034 32.0022C53.7225 32.0022 53.9326 32.0892 54.0875 32.2441C54.2424 32.399 54.3294 32.6091 54.3294 32.8282ZM64.7745 32.8282C64.7745 33.0473 64.6875 33.2574 64.5326 33.4123C64.3777 33.5672 64.1676 33.6542 63.9485 33.6542C63.7295 33.6542 63.5194 33.5672 63.3645 33.4123C63.2095 33.2574 63.1225 33.0473 63.1225 32.8282C63.1225 32.6091 63.2095 32.399 63.3645 32.2441C63.5194 32.0892 63.7295 32.0022 63.9485 32.0022C64.1676 32.0022 64.3777 32.0892 64.5326 32.2441C64.6875 32.399 64.7745 32.6091 64.7745 32.8282ZM75.2202 32.8282C75.2202 33.0474 75.1331 33.2575 74.9782 33.4125C74.8232 33.5675 74.613 33.6545 74.3939 33.6545C74.1748 33.6545 73.9646 33.5675 73.8096 33.4125C73.6547 33.2575 73.5676 33.0474 73.5676 32.8282C73.5676 32.6091 73.6546 32.399 73.8095 32.2441C73.9644 32.0892 74.1745 32.0022 74.3936 32.0022C74.6127 32.0022 74.8228 32.0892 74.9777 32.2441C75.1326 32.399 75.2196 32.6091 75.2196 32.8282H75.2202ZM85.6647 32.8282C85.6647 33.0473 85.5777 33.2574 85.4228 33.4123C85.2679 33.5672 85.0578 33.6542 84.8387 33.6542C84.6197 33.6542 84.4095 33.5672 84.2546 33.4123C84.0997 33.2574 84.0127 33.0473 84.0127 32.8282C84.0127 32.6091 84.0997 32.399 84.2546 32.2441C84.4095 32.0892 84.6197 32.0022 84.8387 32.0022C85.0578 32.0022 85.2679 32.0892 85.4228 32.2441C85.5777 32.399 85.6647 32.6091 85.6647 32.8282ZM96.1098 32.8282C96.1098 33.0473 96.0228 33.2574 95.8679 33.4123C95.713 33.5672 95.5029 33.6542 95.2838 33.6542C95.0647 33.6542 94.8546 33.5672 94.6997 33.4123C94.5448 33.2574 94.4578 33.0473 94.4578 32.8282C94.4578 32.6091 94.5448 32.399 94.6997 32.2441C94.8546 32.0892 95.0647 32.0022 95.2838 32.0022C95.5029 32.0022 95.713 32.0892 95.8679 32.2441C96.0228 32.399 96.1098 32.6091 96.1098 32.8282ZM106.555 32.8282C106.555 33.0474 106.468 33.2575 106.313 33.4125C106.158 33.5675 105.948 33.6545 105.729 33.6545C105.509 33.6545 105.299 33.5675 105.144 33.4125C104.989 33.2575 104.902 33.0474 104.902 32.8282C104.902 32.6091 104.989 32.3989 105.144 32.2439C105.299 32.089 105.509 32.0019 105.729 32.0019C105.948 32.0019 106.158 32.089 106.313 32.2439C106.468 32.3989 106.555 32.6091 106.555 32.8282ZM117 32.8282C117 33.0474 116.913 33.2575 116.758 33.4125C116.603 33.5675 116.393 33.6545 116.174 33.6545C115.955 33.6545 115.744 33.5675 115.589 33.4125C115.435 33.2575 115.347 33.0474 115.347 32.8282C115.347 32.6091 115.434 32.399 115.589 32.2441C115.744 32.0892 115.954 32.0022 116.173 32.0022C116.393 32.0022 116.603 32.0892 116.758 32.2441C116.912 32.399 117 32.6091 117 32.8282ZM2.10452 43.414C2.10452 43.633 2.0175 43.8431 1.8626 43.9981C1.70769 44.153 1.49759 44.24 1.27852 44.24C1.05945 44.24 0.849347 44.153 0.694441 43.9981C0.539535 43.8431 0.452515 43.633 0.452515 43.414C0.452515 43.1949 0.539535 42.9848 0.694441 42.8299C0.849347 42.675 1.05945 42.588 1.27852 42.588C1.49759 42.588 1.70769 42.675 1.8626 42.8299C2.0175 42.9848 2.10452 43.1949 2.10452 43.414ZM12.5502 43.414C12.5502 43.633 12.4631 43.8431 12.3082 43.9981C12.1533 44.153 11.9432 44.24 11.7242 44.24C11.5051 44.24 11.295 44.153 11.1401 43.9981C10.9852 43.8431 10.8982 43.633 10.8982 43.414C10.8982 43.1949 10.9852 42.9848 11.1401 42.8299C11.295 42.675 11.5051 42.588 11.7242 42.588C11.9432 42.588 12.1533 42.675 12.3082 42.8299C12.4631 42.9848 12.5502 43.1949 12.5502 43.414ZM22.9947 43.414C22.9947 43.633 22.9077 43.8431 22.7528 43.9981C22.5979 44.153 22.3878 44.24 22.1687 44.24C21.9496 44.24 21.7395 44.153 21.5846 43.9981C21.4297 43.8431 21.3427 43.633 21.3427 43.414C21.3427 43.1949 21.4297 42.9848 21.5846 42.8299C21.7395 42.675 21.9496 42.588 22.1687 42.588C22.3878 42.588 22.5979 42.675 22.7528 42.8299C22.9077 42.9848 22.9947 43.1949 22.9947 43.414ZM33.4398 43.414C33.4398 43.633 33.3528 43.8431 33.1979 43.9981C33.043 44.153 32.8329 44.24 32.6138 44.24C32.3947 44.24 32.1846 44.153 32.0297 43.9981C31.8748 43.8431 31.7878 43.633 31.7878 43.414C31.7878 43.1949 31.8748 42.9848 32.0297 42.8299C32.1846 42.675 32.3947 42.588 32.6138 42.588C32.8329 42.588 33.043 42.675 33.1979 42.8299C33.3528 42.9848 33.4398 43.1949 33.4398 43.414ZM43.8843 43.414C43.8884 43.5249 43.8701 43.6355 43.8305 43.7392C43.7909 43.8429 43.7308 43.9376 43.6537 44.0175C43.5767 44.0975 43.4844 44.1611 43.3822 44.2045C43.2801 44.248 43.1702 44.2704 43.0592 44.2704C42.9482 44.2705 42.8383 44.2481 42.7361 44.2047C42.6339 44.1614 42.5415 44.0978 42.4645 44.0179C42.3874 43.938 42.3272 43.8434 42.2875 43.7397C42.2478 43.6361 42.2294 43.5255 42.2334 43.4145C42.2412 43.2008 42.3315 42.9984 42.4854 42.8499C42.6393 42.7015 42.8448 42.6185 43.0586 42.6184C43.2725 42.6183 43.478 42.7012 43.632 42.8496C43.786 42.9979 43.8765 43.2003 43.8843 43.414ZM54.3294 43.414C54.3335 43.5249 54.3152 43.6355 54.2756 43.7392C54.236 43.8429 54.1759 43.9376 54.0988 44.0175C54.0218 44.0975 53.9295 44.1611 53.8273 44.2045C53.7251 44.248 53.6153 44.2704 53.5043 44.2704C53.3933 44.2705 53.2834 44.2481 53.1812 44.2047C53.079 44.1614 52.9866 44.0978 52.9096 44.0179C52.8325 43.938 52.7723 43.8434 52.7326 43.7397C52.6929 43.6361 52.6745 43.5255 52.6785 43.4145C52.6863 43.2008 52.7766 42.9984 52.9305 42.8499C53.0844 42.7015 53.2899 42.6185 53.5037 42.6184C53.7176 42.6183 53.9231 42.7012 54.0771 42.8496C54.2311 42.9979 54.3216 43.2003 54.3294 43.414ZM64.7745 43.414C64.7774 43.5242 64.7582 43.6339 64.718 43.7366C64.6778 43.8393 64.6175 43.9329 64.5406 44.0119C64.4636 44.0909 64.3717 44.1537 64.2701 44.1966C64.1685 44.2394 64.0594 44.2616 63.9491 44.2616C63.8388 44.2616 63.7297 44.2396 63.628 44.1968C63.5264 44.1539 63.4344 44.0912 63.3574 44.0123C63.2805 43.9333 63.2201 43.8398 63.1798 43.7371C63.1395 43.6344 63.1203 43.5248 63.1231 43.4145C63.1286 43.1992 63.2179 42.9946 63.3721 42.8442C63.5263 42.6938 63.7332 42.6096 63.9485 42.6095C64.1639 42.6095 64.3708 42.6935 64.5251 42.8438C64.6794 42.9941 64.7689 43.1987 64.7745 43.414ZM75.2202 43.414C75.2202 43.633 75.1332 43.8431 74.9782 43.9981C74.8233 44.153 74.6132 44.24 74.3942 44.24C74.1751 44.24 73.965 44.153 73.8101 43.9981C73.6552 43.8431 73.5682 43.633 73.5682 43.414C73.5682 43.1949 73.6552 42.9848 73.8101 42.8299C73.965 42.675 74.1751 42.588 74.3942 42.588C74.6132 42.588 74.8233 42.675 74.9782 42.8299C75.1332 42.9848 75.2202 43.1949 75.2202 43.414ZM85.6647 43.414C85.6647 43.633 85.5777 43.8431 85.4228 43.9981C85.2679 44.153 85.0578 44.24 84.8387 44.24C84.6197 44.24 84.4095 44.153 84.2546 43.9981C84.0997 43.8431 84.0127 43.633 84.0127 43.414C84.0127 43.1949 84.0997 42.9848 84.2546 42.8299C84.4095 42.675 84.6197 42.588 84.8387 42.588C85.0578 42.588 85.2679 42.675 85.4228 42.8299C85.5777 42.9848 85.6647 43.1949 85.6647 43.414ZM96.1098 43.414C96.1098 43.633 96.0228 43.8431 95.8679 43.9981C95.713 44.153 95.5029 44.24 95.2838 44.24C95.0647 44.24 94.8546 44.153 94.6997 43.9981C94.5448 43.8431 94.4578 43.633 94.4578 43.414C94.4578 43.1949 94.5448 42.9848 94.6997 42.8299C94.8546 42.675 95.0647 42.588 95.2838 42.588C95.5029 42.588 95.713 42.675 95.8679 42.8299C96.0228 42.9848 96.1098 43.1949 96.1098 43.414ZM106.555 43.414C106.555 43.633 106.468 43.8431 106.313 43.9981C106.158 44.153 105.948 44.24 105.729 44.24C105.51 44.24 105.3 44.153 105.145 43.9981C104.99 43.8431 104.903 43.633 104.903 43.414C104.903 43.1949 104.99 42.9848 105.145 42.8299C105.3 42.675 105.51 42.588 105.729 42.588C105.948 42.588 106.158 42.675 106.313 42.8299C106.468 42.9848 106.555 43.1949 106.555 43.414ZM117 43.414C117 43.633 116.913 43.8431 116.758 43.9981C116.603 44.153 116.393 44.24 116.174 44.24C115.955 44.24 115.745 44.153 115.59 43.9981C115.435 43.8431 115.348 43.633 115.348 43.414C115.348 43.1949 115.435 42.9848 115.59 42.8299C115.745 42.675 115.955 42.588 116.174 42.588C116.393 42.588 116.603 42.675 116.758 42.8299C116.913 42.9848 117 43.1949 117 43.414ZM2.10452 54.0003C2.10449 54.1088 2.08308 54.2162 2.04154 54.3164C1.99999 54.4166 1.93912 54.5076 1.86239 54.5843C1.78567 54.661 1.69458 54.7218 1.59435 54.7633C1.49412 54.8047 1.38672 54.8261 1.27825 54.826C1.16978 54.826 1.06236 54.8046 0.962163 54.7631C0.861961 54.7215 0.770932 54.6606 0.694256 54.5839C0.61758 54.5072 0.556759 54.4161 0.515282 54.3159C0.473805 54.2156 0.452479 54.1082 0.452515 53.9997C0.452515 53.7807 0.539535 53.5706 0.694441 53.4156C0.849347 53.2607 1.05945 53.1737 1.27852 53.1737C1.49759 53.1737 1.70769 53.2607 1.8626 53.4156C2.0175 53.5706 2.10452 53.7807 2.10452 53.9997V54.0003ZM12.5502 54.0003C12.5501 54.1088 12.5287 54.2163 12.4871 54.3166C12.4456 54.4169 12.3847 54.5079 12.3079 54.5847C12.2311 54.6614 12.14 54.7223 12.0397 54.7638C11.9394 54.8053 11.8319 54.8266 11.7233 54.8266C11.6148 54.8265 11.5073 54.8051 11.407 54.7636C11.3068 54.722 11.2157 54.6611 11.139 54.5843C11.0622 54.5075 11.0014 54.4164 10.9599 54.3161C10.9184 54.2158 10.897 54.1083 10.8971 53.9997C10.8971 53.7806 10.9841 53.5704 11.1391 53.4155C11.294 53.2605 11.5042 53.1734 11.7233 53.1734C11.9425 53.1734 12.1526 53.2605 12.3076 53.4155C12.4626 53.5704 12.5496 53.7806 12.5496 53.9997L12.5502 54.0003ZM22.9947 54.0003C22.9947 54.1088 22.9733 54.2162 22.9317 54.3165C22.8902 54.4167 22.8293 54.5078 22.7525 54.5845C22.6757 54.6612 22.5846 54.722 22.4844 54.7635C22.3841 54.805 22.2767 54.8263 22.1682 54.8263C22.0596 54.8263 21.9522 54.8049 21.852 54.7633C21.7517 54.7217 21.6607 54.6609 21.584 54.5841C21.5073 54.5073 21.4464 54.4162 21.4049 54.316C21.3634 54.2157 21.3421 54.1082 21.3421 53.9997C21.3421 53.7807 21.4292 53.5706 21.5841 53.4156C21.739 53.2607 21.9491 53.1737 22.1682 53.1737C22.3872 53.1737 22.5973 53.2607 22.7522 53.4156C22.9071 53.5706 22.9942 53.7807 22.9942 53.9997L22.9947 54.0003ZM33.4398 54.0003C33.4398 54.1088 33.4184 54.2162 33.3768 54.3165C33.3352 54.4167 33.2744 54.5078 33.1976 54.5845C33.1208 54.6612 33.0297 54.722 32.9295 54.7635C32.8292 54.805 32.7217 54.8263 32.6132 54.8263C32.5047 54.8263 32.3973 54.8049 32.2971 54.7633C32.1968 54.7217 32.1058 54.6609 32.0291 54.5841C31.9524 54.5073 31.8915 54.4162 31.85 54.316C31.8085 54.2157 31.7872 54.1082 31.7872 53.9997C31.7872 53.7807 31.8743 53.5706 32.0292 53.4156C32.1841 53.2607 32.3942 53.1737 32.6132 53.1737C32.8323 53.1737 33.0424 53.2607 33.1973 53.4156C33.3522 53.5706 33.4392 53.7807 33.4392 53.9997L33.4398 54.0003ZM43.8843 54.0003C43.8843 54.2194 43.7973 54.4295 43.6424 54.5844C43.4875 54.7393 43.2774 54.8263 43.0583 54.8263C42.8393 54.8263 42.6292 54.7393 42.4743 54.5844C42.3194 54.4295 42.2323 54.2194 42.2323 54.0003C42.2323 53.7812 42.3194 53.5711 42.4743 53.4162C42.6292 53.2613 42.8393 53.1743 43.0583 53.1743C43.2774 53.1743 43.4875 53.2613 43.6424 53.4162C43.7973 53.5711 43.8843 53.7812 43.8843 54.0003ZM54.3294 54.0003C54.3294 54.2194 54.2424 54.4295 54.0875 54.5844C53.9326 54.7393 53.7225 54.8263 53.5034 54.8263C53.2844 54.8263 53.0743 54.7393 52.9194 54.5844C52.7645 54.4295 52.6774 54.2194 52.6774 54.0003C52.6774 53.7812 52.7645 53.5711 52.9194 53.4162C53.0743 53.2613 53.2844 53.1743 53.5034 53.1743C53.7225 53.1743 53.9326 53.2613 54.0875 53.4162C54.2424 53.5711 54.3294 53.7812 54.3294 54.0003ZM64.7745 54.0003C64.7745 54.2194 64.6875 54.4295 64.5326 54.5844C64.3777 54.7393 64.1676 54.8263 63.9485 54.8263C63.7295 54.8263 63.5194 54.7393 63.3645 54.5844C63.2095 54.4295 63.1225 54.2194 63.1225 54.0003C63.1225 53.7812 63.2095 53.5711 63.3645 53.4162C63.5194 53.2613 63.7295 53.1743 63.9485 53.1743C64.1676 53.1743 64.3777 53.2613 64.5326 53.4162C64.6875 53.5711 64.7745 53.7812 64.7745 54.0003ZM75.2202 54.0003C75.2201 54.1088 75.1987 54.2162 75.1572 54.3165C75.1156 54.4167 75.0547 54.5078 74.978 54.5845C74.9012 54.6612 74.8101 54.722 74.7098 54.7635C74.6096 54.805 74.5021 54.8263 74.3936 54.8263C74.2851 54.8263 74.1777 54.8049 74.0774 54.7633C73.9772 54.7217 73.8861 54.6609 73.8094 54.5841C73.7327 54.5073 73.6719 54.4162 73.6304 54.316C73.5889 54.2157 73.5676 54.1082 73.5676 53.9997C73.5676 53.7807 73.6546 53.5706 73.8095 53.4156C73.9644 53.2607 74.1745 53.1737 74.3936 53.1737C74.6127 53.1737 74.8228 53.2607 74.9777 53.4156C75.1326 53.5706 75.2196 53.7807 75.2196 53.9997L75.2202 54.0003ZM85.6647 54.0003C85.6647 54.1088 85.6433 54.2162 85.6017 54.3164C85.5602 54.4166 85.4993 54.5076 85.4226 54.5843C85.3459 54.661 85.2548 54.7218 85.1546 54.7633C85.0543 54.8047 84.9469 54.8261 84.8384 54.826C84.73 54.826 84.6226 54.8046 84.5224 54.7631C84.4222 54.7215 84.3311 54.6606 84.2544 54.5839C84.1778 54.5072 84.117 54.4161 84.0755 54.3159C84.034 54.2156 84.0127 54.1082 84.0127 53.9997C84.0127 53.7807 84.0997 53.5706 84.2546 53.4156C84.4095 53.2607 84.6197 53.1737 84.8387 53.1737C85.0578 53.1737 85.2679 53.2607 85.4228 53.4156C85.5777 53.5706 85.6647 53.7807 85.6647 53.9997V54.0003ZM96.1098 54.0003C96.1098 54.1088 96.0884 54.2162 96.0468 54.3164C96.0053 54.4166 95.9444 54.5076 95.8677 54.5843C95.791 54.661 95.6999 54.7218 95.5997 54.7633C95.4994 54.8047 95.392 54.8261 95.2835 54.826C95.1751 54.826 95.0676 54.8046 94.9675 54.7631C94.8672 54.7215 94.7762 54.6606 94.6995 54.5839C94.6229 54.5072 94.562 54.4161 94.5206 54.3159C94.4791 54.2156 94.4578 54.1082 94.4578 53.9997C94.4578 53.7807 94.5448 53.5706 94.6997 53.4156C94.8546 53.2607 95.0647 53.1737 95.2838 53.1737C95.5029 53.1737 95.713 53.2607 95.8679 53.4156C96.0228 53.5706 96.1098 53.7807 96.1098 53.9997V54.0003ZM106.555 54.0003C106.555 54.1088 106.533 54.2162 106.492 54.3165C106.45 54.4167 106.389 54.5078 106.313 54.5845C106.236 54.6612 106.145 54.722 106.045 54.7635C105.944 54.805 105.837 54.8263 105.728 54.8263C105.62 54.8263 105.512 54.8049 105.412 54.7633C105.312 54.7217 105.221 54.6609 105.144 54.5841C105.067 54.5073 105.007 54.4162 104.965 54.316C104.924 54.2157 104.902 54.1082 104.902 53.9997C104.902 53.7806 104.989 53.5704 105.144 53.4155C105.299 53.2605 105.509 53.1734 105.729 53.1734C105.948 53.1734 106.158 53.2605 106.313 53.4155C106.468 53.5704 106.555 53.7806 106.555 53.9997V54.0003ZM117 54.0003C117 54.1088 116.979 54.2162 116.937 54.3165C116.895 54.4167 116.835 54.5078 116.758 54.5845C116.681 54.6612 116.59 54.722 116.49 54.7635C116.389 54.805 116.282 54.8263 116.173 54.8263C116.065 54.8263 115.958 54.8049 115.857 54.7633C115.757 54.7217 115.666 54.6609 115.589 54.5841C115.513 54.5073 115.452 54.4162 115.41 54.316C115.369 54.2157 115.347 54.1082 115.347 53.9997C115.347 53.7807 115.434 53.5706 115.589 53.4156C115.744 53.2607 115.954 53.1737 116.173 53.1737C116.393 53.1737 116.603 53.2607 116.758 53.4156C116.912 53.5706 116.999 53.7807 116.999 53.9997L117 54.0003ZM2.10452 64.5855C2.10452 64.8046 2.0175 65.0147 1.8626 65.1696C1.70769 65.3245 1.49759 65.4115 1.27852 65.4115C1.05945 65.4115 0.849347 65.3245 0.694441 65.1696C0.539535 65.0147 0.452515 64.8046 0.452515 64.5855C0.452515 64.3664 0.539535 64.1563 0.694441 64.0014C0.849347 63.8465 1.05945 63.7595 1.27852 63.7595C1.49759 63.7595 1.70769 63.8465 1.8626 64.0014C2.0175 64.1563 2.10452 64.3664 2.10452 64.5855ZM12.5502 64.5855C12.5502 64.8047 12.4631 65.015 12.3081 65.17C12.1531 65.325 11.9428 65.4121 11.7236 65.4121C11.5044 65.4121 11.2942 65.325 11.1392 65.17C10.9841 65.015 10.8971 64.8047 10.8971 64.5855C10.8971 64.3663 10.9841 64.1562 11.1391 64.0012C11.294 63.8463 11.5042 63.7592 11.7233 63.7592C11.9425 63.7592 12.1526 63.8463 12.3076 64.0012C12.4626 64.1562 12.5496 64.3663 12.5496 64.5855H12.5502ZM22.9947 64.5855C22.9947 64.8046 22.9077 65.0148 22.7527 65.1698C22.5977 65.3247 22.3876 65.4118 22.1684 65.4118C21.9493 65.4118 21.7391 65.3247 21.5842 65.1698C21.4292 65.0148 21.3421 64.8046 21.3421 64.5855C21.3421 64.3664 21.4292 64.1563 21.5841 64.0014C21.739 63.8465 21.9491 63.7595 22.1682 63.7595C22.3872 63.7595 22.5973 63.8465 22.7522 64.0014C22.9071 64.1563 22.9942 64.3664 22.9942 64.5855H22.9947ZM33.4398 64.5855C33.4398 64.8046 33.3527 65.0148 33.1978 65.1698C33.0428 65.3247 32.8327 65.4118 32.6135 65.4118C32.3944 65.4118 32.1842 65.3247 32.0293 65.1698C31.8743 65.0148 31.7872 64.8046 31.7872 64.5855C31.7872 64.3664 31.8743 64.1563 32.0292 64.0014C32.1841 63.8465 32.3942 63.7595 32.6132 63.7595C32.8323 63.7595 33.0424 63.8465 33.1973 64.0014C33.3522 64.1563 33.4392 64.3664 33.4392 64.5855H33.4398ZM43.8843 64.5855C43.8843 64.8046 43.7973 65.0147 43.6424 65.1696C43.4875 65.3245 43.2774 65.4115 43.0583 65.4115C42.8393 65.4115 42.6292 65.3245 42.4743 65.1696C42.3194 65.0147 42.2323 64.8046 42.2323 64.5855C42.2323 64.3664 42.3194 64.1563 42.4743 64.0014C42.6292 63.8465 42.8393 63.7595 43.0583 63.7595C43.2774 63.7595 43.4875 63.8465 43.6424 64.0014C43.7973 64.1563 43.8843 64.3664 43.8843 64.5855ZM54.3294 64.5855C54.3294 64.8046 54.2424 65.0147 54.0875 65.1696C53.9326 65.3245 53.7225 65.4115 53.5034 65.4115C53.2844 65.4115 53.0743 65.3245 52.9194 65.1696C52.7645 65.0147 52.6774 64.8046 52.6774 64.5855C52.6774 64.3664 52.7645 64.1563 52.9194 64.0014C53.0743 63.8465 53.2844 63.7595 53.5034 63.7595C53.7225 63.7595 53.9326 63.8465 54.0875 64.0014C54.2424 64.1563 54.3294 64.3664 54.3294 64.5855ZM64.7745 64.5855C64.7745 64.8046 64.6875 65.0147 64.5326 65.1696C64.3777 65.3245 64.1676 65.4115 63.9485 65.4115C63.7295 65.4115 63.5194 65.3245 63.3645 65.1696C63.2095 65.0147 63.1225 64.8046 63.1225 64.5855C63.1225 64.3664 63.2095 64.1563 63.3645 64.0014C63.5194 63.8465 63.7295 63.7595 63.9485 63.7595C64.1676 63.7595 64.3777 63.8465 64.5326 64.0014C64.6875 64.1563 64.7745 64.3664 64.7745 64.5855ZM75.2202 64.5855C75.2202 64.8046 75.1331 65.0148 74.9782 65.1698C74.8232 65.3247 74.613 65.4118 74.3939 65.4118C74.1748 65.4118 73.9646 65.3247 73.8096 65.1698C73.6547 65.0148 73.5676 64.8046 73.5676 64.5855C73.5676 64.3664 73.6546 64.1563 73.8095 64.0014C73.9644 63.8465 74.1745 63.7595 74.3936 63.7595C74.6127 63.7595 74.8228 63.8465 74.9777 64.0014C75.1326 64.1563 75.2196 64.3664 75.2196 64.5855H75.2202ZM85.6647 64.5855C85.6647 64.8046 85.5777 65.0147 85.4228 65.1696C85.2679 65.3245 85.0578 65.4115 84.8387 65.4115C84.6197 65.4115 84.4095 65.3245 84.2546 65.1696C84.0997 65.0147 84.0127 64.8046 84.0127 64.5855C84.0127 64.3664 84.0997 64.1563 84.2546 64.0014C84.4095 63.8465 84.6197 63.7595 84.8387 63.7595C85.0578 63.7595 85.2679 63.8465 85.4228 64.0014C85.5777 64.1563 85.6647 64.3664 85.6647 64.5855ZM96.1098 64.5855C96.1098 64.8046 96.0228 65.0147 95.8679 65.1696C95.713 65.3245 95.5029 65.4115 95.2838 65.4115C95.0647 65.4115 94.8546 65.3245 94.6997 65.1696C94.5448 65.0147 94.4578 64.8046 94.4578 64.5855C94.4578 64.3664 94.5448 64.1563 94.6997 64.0014C94.8546 63.8465 95.0647 63.7595 95.2838 63.7595C95.5029 63.7595 95.713 63.8465 95.8679 64.0014C96.0228 64.1563 96.1098 64.3664 96.1098 64.5855ZM106.555 64.5855C106.555 64.8046 106.468 65.0148 106.313 65.1698C106.158 65.3247 105.948 65.4118 105.729 65.4118C105.509 65.4118 105.299 65.3247 105.144 65.1698C104.989 65.0148 104.902 64.8046 104.902 64.5855C104.902 64.3663 104.989 64.1562 105.144 64.0012C105.299 63.8463 105.509 63.7592 105.729 63.7592C105.948 63.7592 106.158 63.8463 106.313 64.0012C106.468 64.1562 106.555 64.3663 106.555 64.5855ZM117 64.5855C117 64.8046 116.913 65.0148 116.758 65.1698C116.603 65.3247 116.393 65.4118 116.174 65.4118C115.955 65.4118 115.744 65.3247 115.589 65.1698C115.435 65.0148 115.347 64.8046 115.347 64.5855C115.347 64.3664 115.434 64.1563 115.589 64.0014C115.744 63.8465 115.954 63.7595 116.173 63.7595C116.393 63.7595 116.603 63.8465 116.758 64.0014C116.912 64.1563 117 64.3664 117 64.5855ZM2.10452 75.1718C2.10445 75.3909 2.01735 75.601 1.86239 75.7558C1.70744 75.9107 1.49732 75.9976 1.27825 75.9976C1.05918 75.9975 0.84911 75.9104 0.694256 75.7554C0.539402 75.6005 0.452442 75.3903 0.452515 75.1713C0.452515 74.9522 0.539535 74.7421 0.694441 74.5872C0.849347 74.4323 1.05945 74.3452 1.27852 74.3452C1.49759 74.3452 1.70769 74.4323 1.8626 74.5872C2.0175 74.7421 2.10452 74.9527 2.10452 75.1718ZM12.5502 75.1718C12.5501 75.391 12.4629 75.6012 12.3079 75.7562C12.1528 75.9112 11.9426 75.9982 11.7233 75.9981C11.5041 75.998 11.2939 75.9109 11.139 75.7558C10.984 75.6008 10.897 75.3905 10.8971 75.1713C10.8971 74.9521 10.9841 74.7419 11.1391 74.587C11.294 74.432 11.5042 74.345 11.7233 74.345C11.9425 74.345 12.1526 74.432 12.3076 74.587C12.4626 74.7419 12.5496 74.9521 12.5496 75.1713L12.5502 75.1718ZM22.9947 75.1718C22.9947 75.2803 22.9733 75.3878 22.9317 75.488C22.8902 75.5882 22.8293 75.6793 22.7525 75.756C22.6757 75.8327 22.5846 75.8935 22.4844 75.935C22.3841 75.9765 22.2767 75.9979 22.1682 75.9978C22.0596 75.9978 21.9522 75.9764 21.852 75.9348C21.7517 75.8933 21.6607 75.8324 21.584 75.7556C21.5073 75.6789 21.4464 75.5878 21.4049 75.4875C21.3634 75.3872 21.3421 75.2798 21.3421 75.1713C21.3421 74.9522 21.4292 74.7421 21.5841 74.5872C21.739 74.4323 21.9491 74.3452 22.1682 74.3452C22.3872 74.3452 22.5973 74.4323 22.7522 74.5872C22.9071 74.7421 22.9942 74.9522 22.9942 75.1713L22.9947 75.1718ZM33.4398 75.1718C33.4398 75.2803 33.4184 75.3878 33.3768 75.488C33.3352 75.5882 33.2744 75.6793 33.1976 75.756C33.1208 75.8327 33.0297 75.8935 32.9295 75.935C32.8292 75.9765 32.7217 75.9979 32.6132 75.9978C32.5047 75.9978 32.3973 75.9764 32.2971 75.9348C32.1968 75.8933 32.1058 75.8324 32.0291 75.7556C31.9524 75.6789 31.8915 75.5878 31.85 75.4875C31.8085 75.3872 31.7872 75.2798 31.7872 75.1713C31.7872 74.9522 31.8743 74.7421 32.0292 74.5872C32.1841 74.4323 32.3942 74.3452 32.6132 74.3452C32.8323 74.3452 33.0424 74.4323 33.1973 74.5872C33.3522 74.7421 33.4392 74.9522 33.4392 75.1713L33.4398 75.1718ZM43.8843 75.1718C43.8843 75.3909 43.7973 75.601 43.6424 75.7559C43.4875 75.9108 43.2774 75.9978 43.0583 75.9978C42.8393 75.9978 42.6292 75.9108 42.4743 75.7559C42.3194 75.601 42.2323 75.3909 42.2323 75.1718C42.2323 74.9527 42.3194 74.7426 42.4743 74.5877C42.6292 74.4328 42.8393 74.3458 43.0583 74.3458C43.2774 74.3458 43.4875 74.4328 43.6424 74.5877C43.7973 74.7426 43.8843 74.9527 43.8843 75.1718ZM54.3294 75.1718C54.3294 75.3909 54.2424 75.601 54.0875 75.7559C53.9326 75.9108 53.7225 75.9978 53.5034 75.9978C53.2844 75.9978 53.0743 75.9108 52.9194 75.7559C52.7645 75.601 52.6774 75.3909 52.6774 75.1718C52.6774 74.9527 52.7645 74.7426 52.9194 74.5877C53.0743 74.4328 53.2844 74.3458 53.5034 74.3458C53.7225 74.3458 53.9326 74.4328 54.0875 74.5877C54.2424 74.7426 54.3294 74.9527 54.3294 75.1718ZM64.7745 75.1718C64.7745 75.3909 64.6875 75.601 64.5326 75.7559C64.3777 75.9108 64.1676 75.9978 63.9485 75.9978C63.7295 75.9978 63.5194 75.9108 63.3645 75.7559C63.2095 75.601 63.1225 75.3909 63.1225 75.1718C63.1225 74.9527 63.2095 74.7426 63.3645 74.5877C63.5194 74.4328 63.7295 74.3458 63.9485 74.3458C64.1676 74.3458 64.3777 74.4328 64.5326 74.5877C64.6875 74.7426 64.7745 74.9527 64.7745 75.1718ZM75.2202 75.1718C75.2201 75.2803 75.1987 75.3878 75.1572 75.488C75.1156 75.5882 75.0547 75.6793 74.978 75.756C74.9012 75.8327 74.8101 75.8935 74.7098 75.935C74.6096 75.9765 74.5021 75.9979 74.3936 75.9978C74.2851 75.9978 74.1777 75.9764 74.0774 75.9348C73.9772 75.8933 73.8861 75.8324 73.8094 75.7556C73.7327 75.6789 73.6719 75.5878 73.6304 75.4875C73.5889 75.3872 73.5676 75.2798 73.5676 75.1713C73.5676 74.9522 73.6546 74.7421 73.8095 74.5872C73.9644 74.4323 74.1745 74.3452 74.3936 74.3452C74.6127 74.3452 74.8228 74.4323 74.9777 74.5872C75.1326 74.7421 75.2196 74.9522 75.2196 75.1713L75.2202 75.1718ZM85.6647 75.1718C85.6647 75.2803 85.6433 75.3877 85.6017 75.4879C85.5602 75.5881 85.4993 75.6791 85.4226 75.7558C85.3459 75.8325 85.2548 75.8933 85.1546 75.9348C85.0543 75.9763 84.9469 75.9976 84.8384 75.9976C84.73 75.9975 84.6226 75.9761 84.5224 75.9346C84.4222 75.893 84.3311 75.8322 84.2544 75.7554C84.1778 75.6787 84.117 75.5876 84.0755 75.4874C84.034 75.3871 84.0127 75.2797 84.0127 75.1713C84.0127 74.9522 84.0997 74.7421 84.2546 74.5872C84.4095 74.4323 84.6197 74.3452 84.8387 74.3452C85.0578 74.3452 85.2679 74.4323 85.4228 74.5872C85.5777 74.7421 85.6647 74.9527 85.6647 75.1718ZM96.1098 75.1718C96.1097 75.3909 96.0226 75.601 95.8677 75.7558C95.7127 75.9107 95.5026 75.9976 95.2835 75.9976C95.0645 75.9975 94.8544 75.9104 94.6995 75.7554C94.5447 75.6005 94.4577 75.3903 94.4578 75.1713C94.4578 74.9522 94.5448 74.7421 94.6997 74.5872C94.8546 74.4323 95.0647 74.3452 95.2838 74.3452C95.5029 74.3452 95.713 74.4323 95.8679 74.5872C96.0228 74.7421 96.1098 74.9527 96.1098 75.1718ZM106.555 75.1718C106.555 75.2803 106.533 75.3878 106.492 75.488C106.45 75.5882 106.389 75.6793 106.313 75.756C106.236 75.8327 106.145 75.8935 106.045 75.935C105.944 75.9765 105.837 75.9979 105.728 75.9978C105.62 75.9978 105.512 75.9764 105.412 75.9348C105.312 75.8933 105.221 75.8324 105.144 75.7556C105.067 75.6789 105.007 75.5878 104.965 75.4875C104.924 75.3872 104.902 75.2798 104.902 75.1713C104.902 74.9521 104.989 74.7419 105.144 74.587C105.299 74.432 105.509 74.345 105.729 74.345C105.948 74.345 106.158 74.432 106.313 74.587C106.468 74.7419 106.555 74.9527 106.555 75.1718ZM117 75.1718C117 75.2803 116.979 75.3878 116.937 75.488C116.895 75.5882 116.835 75.6793 116.758 75.756C116.681 75.8327 116.59 75.8935 116.49 75.935C116.389 75.9765 116.282 75.9979 116.173 75.9978C116.065 75.9978 115.958 75.9764 115.857 75.9348C115.757 75.8933 115.666 75.8324 115.589 75.7556C115.513 75.6789 115.452 75.5878 115.41 75.4875C115.369 75.3872 115.347 75.2798 115.347 75.1713C115.347 74.9522 115.434 74.7421 115.589 74.5872C115.744 74.4323 115.954 74.3452 116.173 74.3452C116.393 74.3452 116.603 74.4323 116.758 74.5872C116.912 74.7421 116.999 74.9522 116.999 75.1713L117 75.1718ZM2.10452 85.7576C2.10438 85.9766 2.01722 86.1867 1.86221 86.3415C1.7072 86.4963 1.49703 86.5832 1.27796 86.583C1.05889 86.5829 0.848857 86.4957 0.694054 86.3407C0.539252 86.1857 0.452369 85.9755 0.452515 85.7565C0.452661 85.5374 0.539818 85.3273 0.694827 85.1725C0.849836 85.0177 1.06 84.9308 1.27907 84.931C1.49814 84.9311 1.70818 85.0183 1.86298 85.1733C2.01779 85.3283 2.10467 85.5385 2.10452 85.7576ZM12.5502 85.7576C12.5501 85.8661 12.5286 85.9736 12.487 86.0738C12.4454 86.1741 12.3845 86.2652 12.3077 86.3419C12.1526 86.4968 11.9423 86.5837 11.7231 86.5836C11.5039 86.5835 11.2937 86.4962 11.1388 86.3411C10.9838 86.186 10.8969 85.9757 10.8971 85.7565C10.8972 85.5373 10.9844 85.3272 11.1395 85.1723C11.2945 85.0175 11.5047 84.9306 11.7239 84.9307C11.943 84.9309 12.1531 85.0181 12.308 85.1731C12.4628 85.3282 12.5498 85.5384 12.5496 85.7576H12.5502ZM22.9947 85.7576C22.9946 85.8661 22.9732 85.9735 22.9316 86.0737C22.89 86.174 22.8291 86.265 22.7523 86.3417C22.6755 86.4184 22.5844 86.4792 22.4841 86.5206C22.3838 86.5621 22.2764 86.5834 22.1679 86.5833C22.0594 86.5832 21.9519 86.5618 21.8517 86.5202C21.7515 86.4786 21.6604 86.4177 21.5838 86.3409C21.5071 86.2641 21.4463 86.173 21.4048 86.0727C21.3634 85.9724 21.3421 85.865 21.3421 85.7565C21.3423 85.5374 21.4295 85.3273 21.5845 85.1725C21.7395 85.0177 21.9496 84.9308 22.1687 84.931C22.3878 84.9311 22.5978 85.0183 22.7526 85.1733C22.9074 85.3283 22.9943 85.5385 22.9942 85.7576H22.9947ZM33.4398 85.7576C33.4397 85.8661 33.4183 85.9735 33.3767 86.0737C33.3351 86.174 33.2742 86.265 33.1974 86.3417C33.1206 86.4184 33.0295 86.4792 32.9292 86.5206C32.8289 86.5621 32.7215 86.5834 32.613 86.5833C32.5045 86.5832 32.397 86.5618 32.2968 86.5202C32.1966 86.4786 32.1055 86.4177 32.0289 86.3409C31.9522 86.2641 31.8914 86.173 31.8499 86.0727C31.8085 85.9724 31.7872 85.865 31.7872 85.7565C31.7874 85.5374 31.8746 85.3273 32.0296 85.1725C32.1846 85.0177 32.3947 84.9308 32.6138 84.931C32.8329 84.9311 33.0429 85.0183 33.1977 85.1733C33.3525 85.3283 33.4394 85.5385 33.4392 85.7576H33.4398ZM43.8843 85.7576C43.8843 85.9766 43.7973 86.1867 43.6424 86.3417C43.4875 86.4966 43.2774 86.5836 43.0583 86.5836C42.8393 86.5836 42.6292 86.4966 42.4743 86.3417C42.3194 86.1867 42.2323 85.9766 42.2323 85.7576C42.2323 85.5385 42.3194 85.3284 42.4743 85.1735C42.6292 85.0186 42.8393 84.9315 43.0583 84.9315C43.2774 84.9315 43.4875 85.0186 43.6424 85.1735C43.7973 85.3284 43.8843 85.5385 43.8843 85.7576ZM54.3294 85.7576C54.3294 85.9766 54.2424 86.1867 54.0875 86.3417C53.9326 86.4966 53.7225 86.5836 53.5034 86.5836C53.2844 86.5836 53.0743 86.4966 52.9194 86.3417C52.7645 86.1867 52.6774 85.9766 52.6774 85.7576C52.6774 85.5385 52.7645 85.3284 52.9194 85.1735C53.0743 85.0186 53.2844 84.9315 53.5034 84.9315C53.7225 84.9315 53.9326 85.0186 54.0875 85.1735C54.2424 85.3284 54.3294 85.5385 54.3294 85.7576ZM64.7745 85.7576C64.7745 85.9766 64.6875 86.1867 64.5326 86.3417C64.3777 86.4966 64.1676 86.5836 63.9485 86.5836C63.7295 86.5836 63.5194 86.4966 63.3645 86.3417C63.2095 86.1867 63.1225 85.9766 63.1225 85.7576C63.1225 85.5385 63.2095 85.3284 63.3645 85.1735C63.5194 85.0186 63.7295 84.9315 63.9485 84.9315C64.1676 84.9315 64.3777 85.0186 64.5326 85.1735C64.6875 85.3284 64.7745 85.5385 64.7745 85.7576ZM75.2202 85.7576C75.2201 85.8661 75.1987 85.9735 75.1571 86.0737C75.1155 86.174 75.0546 86.265 74.9778 86.3417C74.901 86.4184 74.8099 86.4792 74.7096 86.5206C74.6093 86.5621 74.5019 86.5834 74.3933 86.5833C74.2848 86.5832 74.1774 86.5618 74.0772 86.5202C73.977 86.4786 73.8859 86.4177 73.8092 86.3409C73.7326 86.2641 73.6718 86.173 73.6303 86.0727C73.5888 85.9724 73.5675 85.865 73.5676 85.7565C73.5678 85.5374 73.6549 85.3273 73.8099 85.1725C73.965 85.0177 74.1751 84.9308 74.3942 84.931C74.6132 84.9311 74.8233 85.0183 74.9781 85.1733C75.1329 85.3283 75.2198 85.5385 75.2196 85.7576H75.2202ZM85.6647 85.7576C85.6646 85.8661 85.6432 85.9734 85.6016 86.0736C85.5601 86.1738 85.4991 86.2648 85.4224 86.3415C85.3456 86.4182 85.2545 86.4789 85.1543 86.5204C85.0541 86.5618 84.9466 86.5831 84.8382 86.583C84.7297 86.583 84.6223 86.5615 84.5221 86.52C84.4219 86.4784 84.3309 86.4175 84.2543 86.3407C84.1776 86.264 84.1168 86.1729 84.0754 86.0726C84.0339 85.9724 84.0126 85.8649 84.0127 85.7565C84.0129 85.5374 84.1 85.3273 84.255 85.1725C84.41 85.0177 84.6202 84.9308 84.8393 84.931C85.0583 84.9311 85.2684 85.0183 85.4232 85.1733C85.578 85.3283 85.6649 85.5385 85.6647 85.7576ZM96.1098 85.7576C96.1097 85.8661 96.0883 85.9734 96.0467 86.0736C96.0051 86.1738 95.9443 86.2648 95.8675 86.3415C95.7907 86.4182 95.6996 86.4789 95.5994 86.5204C95.4991 86.5618 95.3917 86.5831 95.2832 86.583C95.1748 86.583 95.0674 86.5615 94.9672 86.52C94.867 86.4784 94.776 86.4175 94.6993 86.3407C94.6227 86.264 94.5619 86.1729 94.5205 86.0726C94.479 85.9724 94.4577 85.8649 94.4578 85.7565C94.4579 85.5374 94.5451 85.3273 94.7001 85.1725C94.8551 85.0177 95.0653 84.9308 95.2844 84.931C95.5034 84.9311 95.7135 85.0183 95.8683 85.1733C96.0231 85.3283 96.11 85.5385 96.1098 85.7576ZM106.555 85.7576C106.555 85.8661 106.533 85.9735 106.492 86.0737C106.45 86.174 106.389 86.265 106.312 86.3417C106.236 86.4184 106.145 86.4792 106.044 86.5206C105.944 86.5621 105.837 86.5834 105.728 86.5833C105.62 86.5832 105.512 86.5618 105.412 86.5202C105.312 86.4786 105.221 86.4177 105.144 86.3409C105.067 86.2641 105.006 86.173 104.965 86.0727C104.924 85.9724 104.902 85.865 104.902 85.7565C104.902 85.5373 104.99 85.3272 105.145 85.1723C105.3 85.0175 105.51 84.9306 105.729 84.9307C105.948 84.9309 106.158 85.0181 106.313 85.1731C106.468 85.3282 106.555 85.5384 106.555 85.7576ZM117 85.7576C117 85.8661 116.978 85.9735 116.937 86.0737C116.895 86.174 116.834 86.265 116.758 86.3417C116.681 86.4184 116.59 86.4792 116.489 86.5206C116.389 86.5621 116.282 86.5834 116.173 86.5833C116.065 86.5832 115.957 86.5618 115.857 86.5202C115.757 86.4786 115.666 86.4177 115.589 86.3409C115.512 86.2641 115.452 86.173 115.41 86.0727C115.369 85.9724 115.347 85.865 115.347 85.7565C115.348 85.5374 115.435 85.3273 115.59 85.1725C115.745 85.0177 115.955 84.9308 116.174 84.931C116.393 84.9311 116.603 85.0183 116.758 85.1733C116.913 85.3283 117 85.5385 117 85.7576ZM2.10452 96.3428C2.10452 96.5619 2.0175 96.772 1.8626 96.9269C1.70769 97.0818 1.49759 97.1688 1.27852 97.1688C1.05945 97.1688 0.849347 97.0818 0.694441 96.9269C0.539535 96.772 0.452515 96.5619 0.452515 96.3428C0.452515 96.1237 0.539535 95.9136 0.694441 95.7587C0.849347 95.6038 1.05945 95.5168 1.27852 95.5168C1.49759 95.5168 1.70769 95.6038 1.8626 95.7587C2.0175 95.9136 2.10452 96.1237 2.10452 96.3428ZM12.5502 96.3428C12.5502 96.5619 12.4631 96.772 12.3082 96.9269C12.1533 97.0818 11.9432 97.1688 11.7242 97.1688C11.5051 97.1688 11.295 97.0818 11.1401 96.9269C10.9852 96.772 10.8982 96.5619 10.8982 96.3428C10.8982 96.1237 10.9852 95.9136 11.1401 95.7587C11.295 95.6038 11.5051 95.5168 11.7242 95.5168C11.9432 95.5168 12.1533 95.6038 12.3082 95.7587C12.4631 95.9136 12.5502 96.1237 12.5502 96.3428ZM22.9947 96.3428C22.9947 96.5619 22.9077 96.772 22.7528 96.9269C22.5979 97.0818 22.3878 97.1688 22.1687 97.1688C21.9496 97.1688 21.7395 97.0818 21.5846 96.9269C21.4297 96.772 21.3427 96.5619 21.3427 96.3428C21.3427 96.1237 21.4297 95.9136 21.5846 95.7587C21.7395 95.6038 21.9496 95.5168 22.1687 95.5168C22.3878 95.5168 22.5979 95.6038 22.7528 95.7587C22.9077 95.9136 22.9947 96.1237 22.9947 96.3428ZM33.4398 96.3428C33.4398 96.5619 33.3528 96.772 33.1979 96.9269C33.043 97.0818 32.8329 97.1688 32.6138 97.1688C32.3947 97.1688 32.1846 97.0818 32.0297 96.9269C31.8748 96.772 31.7878 96.5619 31.7878 96.3428C31.7878 96.1237 31.8748 95.9136 32.0297 95.7587C32.1846 95.6038 32.3947 95.5168 32.6138 95.5168C32.8329 95.5168 33.043 95.6038 33.1979 95.7587C33.3528 95.9136 33.4398 96.1237 33.4398 96.3428ZM43.8843 96.3428C43.8885 96.4537 43.8702 96.5643 43.8306 96.6681C43.791 96.7718 43.7309 96.8664 43.6539 96.9464C43.5769 97.0264 43.4846 97.09 43.3825 97.1335C43.2803 97.177 43.1705 97.1994 43.0595 97.1995C42.9485 97.1996 42.8386 97.1773 42.7364 97.1339C42.6342 97.0906 42.5418 97.0271 42.4647 96.9472C42.3875 96.8673 42.3273 96.7728 42.2876 96.6691C42.2479 96.5654 42.2295 96.4548 42.2334 96.3439C42.2411 96.1302 42.3314 95.9277 42.4852 95.7792C42.6391 95.6307 42.8445 95.5476 43.0584 95.5475C43.2722 95.5473 43.4778 95.6301 43.6318 95.7785C43.7859 95.9268 43.8764 96.1291 43.8843 96.3428ZM54.3294 96.3428C54.3336 96.4537 54.3153 96.5643 54.2757 96.6681C54.2361 96.7718 54.176 96.8664 54.099 96.9464C54.022 97.0264 53.9297 97.09 53.8276 97.1335C53.7254 97.177 53.6156 97.1994 53.5046 97.1995C53.3935 97.1996 53.2837 97.1773 53.1815 97.1339C53.0793 97.0906 52.9869 97.0271 52.9098 96.9472C52.8327 96.8673 52.7724 96.7728 52.7327 96.6691C52.693 96.5654 52.6746 96.4548 52.6785 96.3439C52.6862 96.1302 52.7764 95.9277 52.9303 95.7792C53.0841 95.6307 53.2896 95.5476 53.5034 95.5475C53.7173 95.5473 53.9229 95.6301 54.0769 95.7785C54.231 95.9268 54.3215 96.1291 54.3294 96.3428ZM64.7745 96.3428C64.7775 96.453 64.7583 96.5627 64.7181 96.6654C64.678 96.7681 64.6177 96.8617 64.5408 96.9408C64.4639 97.0198 64.3719 97.0826 64.2703 97.1255C64.1688 97.1684 64.0596 97.1906 63.9494 97.1907C63.8391 97.1907 63.7299 97.1687 63.6283 97.126C63.5267 97.0832 63.4346 97.0205 63.3576 96.9415C63.2806 96.8626 63.2202 96.7691 63.1799 96.6664C63.1396 96.5638 63.1203 96.4541 63.1231 96.3439C63.1285 96.1286 63.2178 95.9239 63.3719 95.7735C63.5261 95.623 63.7329 95.5388 63.9483 95.5386C64.1636 95.5385 64.3706 95.6225 64.5249 95.7727C64.6793 95.9229 64.7688 96.1275 64.7745 96.3428ZM75.2202 96.3428C75.2202 96.5619 75.1332 96.772 74.9782 96.9269C74.8233 97.0818 74.6132 97.1688 74.3942 97.1688C74.1751 97.1688 73.965 97.0818 73.8101 96.9269C73.6552 96.772 73.5682 96.5619 73.5682 96.3428C73.5682 96.1237 73.6552 95.9136 73.8101 95.7587C73.965 95.6038 74.1751 95.5168 74.3942 95.5168C74.6132 95.5168 74.8233 95.6038 74.9782 95.7587C75.1332 95.9136 75.2202 96.1237 75.2202 96.3428ZM85.6647 96.3428C85.6647 96.5619 85.5777 96.772 85.4228 96.9269C85.2679 97.0818 85.0578 97.1688 84.8387 97.1688C84.6197 97.1688 84.4095 97.0818 84.2546 96.9269C84.0997 96.772 84.0127 96.5619 84.0127 96.3428C84.0127 96.1237 84.0997 95.9136 84.2546 95.7587C84.4095 95.6038 84.6197 95.5168 84.8387 95.5168C85.0578 95.5168 85.2679 95.6038 85.4228 95.7587C85.5777 95.9136 85.6647 96.1237 85.6647 96.3428ZM96.1098 96.3428C96.1098 96.5619 96.0228 96.772 95.8679 96.9269C95.713 97.0818 95.5029 97.1688 95.2838 97.1688C95.0647 97.1688 94.8546 97.0818 94.6997 96.9269C94.5448 96.772 94.4578 96.5619 94.4578 96.3428C94.4578 96.1237 94.5448 95.9136 94.6997 95.7587C94.8546 95.6038 95.0647 95.5168 95.2838 95.5168C95.5029 95.5168 95.713 95.6038 95.8679 95.7587C96.0228 95.9136 96.1098 96.1237 96.1098 96.3428ZM106.555 96.3428C106.555 96.5619 106.468 96.772 106.313 96.9269C106.158 97.0818 105.948 97.1688 105.729 97.1688C105.51 97.1688 105.3 97.0818 105.145 96.9269C104.99 96.772 104.903 96.5619 104.903 96.3428C104.903 96.1237 104.99 95.9136 105.145 95.7587C105.3 95.6038 105.51 95.5168 105.729 95.5168C105.948 95.5168 106.158 95.6038 106.313 95.7587C106.468 95.9136 106.555 96.1237 106.555 96.3428ZM117 96.3428C117 96.5619 116.913 96.772 116.758 96.9269C116.603 97.0818 116.393 97.1688 116.174 97.1688C115.955 97.1688 115.745 97.0818 115.59 96.9269C115.435 96.772 115.348 96.5619 115.348 96.3428C115.348 96.1237 115.435 95.9136 115.59 95.7587C115.745 95.6038 115.955 95.5168 116.174 95.5168C116.393 95.5168 116.603 95.6038 116.758 95.7587C116.913 95.9136 117 96.1237 117 96.3428ZM2.10452 106.929C2.10445 107.148 2.01735 107.358 1.86239 107.513C1.70744 107.668 1.49732 107.755 1.27825 107.755C1.05918 107.755 0.84911 107.668 0.694256 107.513C0.539402 107.358 0.452442 107.148 0.452515 106.929C0.452515 106.709 0.539535 106.499 0.694441 106.344C0.849347 106.19 1.05945 106.103 1.27852 106.103C1.49759 106.103 1.70769 106.19 1.8626 106.344C2.0175 106.499 2.10452 106.709 2.10452 106.929V106.929ZM12.5502 106.929C12.5501 107.148 12.4629 107.359 12.3079 107.513C12.1528 107.668 11.9426 107.755 11.7233 107.755C11.5041 107.755 11.2939 107.668 11.139 107.513C10.984 107.358 10.897 107.148 10.8971 106.929C10.8971 106.709 10.9841 106.499 11.1391 106.344C11.294 106.189 11.5042 106.102 11.7233 106.102C11.9425 106.102 12.1526 106.189 12.3076 106.344C12.4626 106.499 12.5496 106.709 12.5496 106.929L12.5502 106.929ZM22.9947 106.929C22.9946 107.148 22.9075 107.358 22.7525 107.513C22.5975 107.668 22.3873 107.755 22.1682 107.755C21.949 107.755 21.7389 107.668 21.584 107.513C21.4291 107.358 21.3421 107.148 21.3421 106.929C21.3421 106.709 21.4292 106.499 21.5841 106.344C21.739 106.19 21.9491 106.103 22.1682 106.103C22.3872 106.103 22.5973 106.19 22.7522 106.344C22.9071 106.499 22.9942 106.709 22.9942 106.929L22.9947 106.929ZM33.4398 106.929C33.4397 107.148 33.3526 107.358 33.1976 107.513C33.0426 107.668 32.8324 107.755 32.6132 107.755C32.3941 107.755 32.184 107.668 32.0291 107.513C31.8742 107.358 31.7872 107.148 31.7872 106.929C31.7872 106.709 31.8743 106.499 32.0292 106.344C32.1841 106.19 32.3942 106.103 32.6132 106.103C32.8323 106.103 33.0424 106.19 33.1973 106.344C33.3522 106.499 33.4392 106.709 33.4392 106.929L33.4398 106.929ZM43.8843 106.929C43.8843 107.148 43.7973 107.358 43.6424 107.513C43.4875 107.668 43.2774 107.755 43.0583 107.755C42.8393 107.755 42.6292 107.668 42.4743 107.513C42.3194 107.358 42.2323 107.148 42.2323 106.929C42.2323 106.71 42.3194 106.5 42.4743 106.345C42.6292 106.19 42.8393 106.103 43.0583 106.103C43.2774 106.103 43.4875 106.19 43.6424 106.345C43.7973 106.5 43.8843 106.71 43.8843 106.929ZM54.3294 106.929C54.3294 107.148 54.2424 107.358 54.0875 107.513C53.9326 107.668 53.7225 107.755 53.5034 107.755C53.2844 107.755 53.0743 107.668 52.9194 107.513C52.7645 107.358 52.6774 107.148 52.6774 106.929C52.6774 106.71 52.7645 106.5 52.9194 106.345C53.0743 106.19 53.2844 106.103 53.5034 106.103C53.7225 106.103 53.9326 106.19 54.0875 106.345C54.2424 106.5 54.3294 106.71 54.3294 106.929ZM64.7745 106.929C64.7745 107.148 64.6875 107.358 64.5326 107.513C64.3777 107.668 64.1676 107.755 63.9485 107.755C63.7295 107.755 63.5194 107.668 63.3645 107.513C63.2095 107.358 63.1225 107.148 63.1225 106.929C63.1225 106.71 63.2095 106.5 63.3645 106.345C63.5194 106.19 63.7295 106.103 63.9485 106.103C64.1676 106.103 64.3777 106.19 64.5326 106.345C64.6875 106.5 64.7745 106.71 64.7745 106.929ZM75.2202 106.929C75.2201 107.038 75.1987 107.145 75.1572 107.245C75.1156 107.346 75.0547 107.437 74.978 107.513C74.9012 107.59 74.8101 107.651 74.7098 107.692C74.6096 107.734 74.5021 107.755 74.3936 107.755C74.2851 107.755 74.1777 107.734 74.0774 107.692C73.9772 107.651 73.8861 107.59 73.8094 107.513C73.7327 107.436 73.6719 107.345 73.6304 107.245C73.5889 107.145 73.5676 107.037 73.5676 106.929C73.5676 106.709 73.6546 106.499 73.8095 106.344C73.9644 106.19 74.1745 106.103 74.3936 106.103C74.6127 106.103 74.8228 106.19 74.9777 106.344C75.1326 106.499 75.2196 106.709 75.2196 106.929L75.2202 106.929ZM85.6647 106.929C85.6647 107.038 85.6433 107.145 85.6017 107.245C85.5602 107.345 85.4993 107.436 85.4226 107.513C85.3459 107.59 85.2548 107.651 85.1546 107.692C85.0543 107.734 84.9469 107.755 84.8384 107.755C84.73 107.755 84.6226 107.733 84.5224 107.692C84.4222 107.65 84.3311 107.589 84.2544 107.513C84.1778 107.436 84.117 107.345 84.0755 107.245C84.034 107.144 84.0127 107.037 84.0127 106.929C84.0127 106.709 84.0997 106.499 84.2546 106.344C84.4095 106.19 84.6197 106.103 84.8387 106.103C85.0578 106.103 85.2679 106.19 85.4228 106.344C85.5777 106.499 85.6647 106.709 85.6647 106.929V106.929ZM96.1098 106.929C96.1097 107.148 96.0226 107.358 95.8677 107.513C95.7127 107.668 95.5026 107.755 95.2835 107.755C95.0645 107.755 94.8544 107.668 94.6995 107.513C94.5447 107.358 94.4577 107.148 94.4578 106.929C94.4578 106.709 94.5448 106.499 94.6997 106.344C94.8546 106.19 95.0647 106.103 95.2838 106.103C95.5029 106.103 95.713 106.19 95.8679 106.344C96.0228 106.499 96.1098 106.709 96.1098 106.929V106.929ZM106.555 106.929C106.555 107.148 106.468 107.358 106.313 107.513C106.158 107.668 105.947 107.755 105.728 107.755C105.509 107.755 105.299 107.668 105.144 107.513C104.989 107.358 104.902 107.148 104.902 106.929C104.902 106.709 104.989 106.499 105.144 106.344C105.299 106.189 105.509 106.102 105.729 106.102C105.948 106.102 106.158 106.189 106.313 106.344C106.468 106.499 106.555 106.709 106.555 106.929V106.929ZM117 106.929C117 107.038 116.979 107.145 116.937 107.245C116.895 107.346 116.835 107.437 116.758 107.513C116.681 107.59 116.59 107.651 116.49 107.692C116.389 107.734 116.282 107.755 116.173 107.755C116.065 107.755 115.958 107.734 115.857 107.692C115.757 107.651 115.666 107.59 115.589 107.513C115.513 107.436 115.452 107.345 115.41 107.245C115.369 107.145 115.347 107.037 115.347 106.929C115.347 106.709 115.434 106.499 115.589 106.344C115.744 106.19 115.954 106.103 116.173 106.103C116.393 106.103 116.603 106.19 116.758 106.344C116.912 106.499 116.999 106.709 116.999 106.929L117 106.929Z" fill="#0F0F0F"/>
</svg>
