<svg width="50" height="50" viewBox="0 0 50 50" fill="none" xmlns="http://www.w3.org/2000/svg">
<g id="Logoo White" clip-path="url(#clip0_830_3)">
<g id="Vector">
<path d="M19.2569 39.1168H12.1967V10.8873L19.2569 10.8825V39.1168Z" fill="#0F0F0F"/>
<path fill-rule="evenodd" clip-rule="evenodd" d="M43.0007 -0.0334778H6.99934C3.11546 -0.0334778 -0.0334473 3.11475 -0.0334473 6.99931V43.0007C-0.0334473 46.8846 3.11478 50.0335 6.99934 50.0335H43.0007C46.8846 50.0335 50.0335 46.8852 50.0335 43.0007V6.99931C50.0335 3.11543 46.8853 -0.0334778 43.0007 -0.0334778ZM12.1967 39.1168H19.2569V10.8825L12.1967 10.8873V39.1168ZM26.3115 39.1168H40.4317L28.1223 29.7841L40.4317 10.8873H33.3716L21.0164 23.2425V33.8169L26.3115 39.1168Z" fill="white"/>
<path d="M40.4317 39.1168H26.3115L21.0164 33.8169V23.2425L33.3716 10.8873H40.4317L28.1223 29.7841L40.4317 39.1168Z" fill="#0F0F0F"/>
</g>
</g>
<defs>
<clipPath id="clip0_830_3">
<rect width="50" height="50" fill="white"/>
</clipPath>
</defs>
</svg>
