<svg width="240" height="37" viewBox="0 0 240 37" fill="none" xmlns="http://www.w3.org/2000/svg">
<g id="Group">
<g id="Group_2">
<path id="Vector" d="M32.8574 2.73206H24.6416L10.2642 17.1094V29.4145L16.4257 35.582H32.8574L18.5324 24.7223L32.8574 2.73206ZM0 35.582H8.21585V2.72607L0 2.73206V35.582Z" fill="white"/>
<path id="Vector_2" d="M53.2123 24.7091H35.4085C35.4295 25.116 35.2469 30.3723 41.7242 30.6985H41.9905C44.2513 30.5354 46.4493 30.2302 47.2857 27.5011H53.0701C53.0701 28.0921 51.2986 36.0565 42.0294 36.2196H41.582C33.9018 36.1388 29.3802 30.3529 29.3802 23.3041C29.3802 16.2553 33.9841 10.4499 41.3591 10.3706H41.6239C51.5649 10.8988 53.5609 18.8438 53.2138 24.7106L53.2123 24.7091ZM41.6434 15.8887C35.838 16.0518 35.3696 19.758 35.3696 20.3086H47.2453C47.2453 20.1036 47.2064 16.173 41.971 15.8887H41.6449H41.6434Z" fill="white"/>
<path id="Vector_3" d="M69.5018 10.936H75.7082L65.9138 35.5776H61.9398L52.1454 10.936H58.3504L63.9283 25.1847L69.5048 10.936H69.5018Z" fill="white"/>
<path id="Vector_4" d="M81.0753 0C83.0922 0 84.6797 1.89573 84.6797 3.64633C84.6797 5.39693 83.0922 7.27322 81.0543 7.27322C79.0164 7.27322 77.4484 5.37748 77.4484 3.64633C77.4484 1.91519 79.0179 0 81.0543 0H81.0753ZM78.1217 35.5776V10.936H84.0692V35.5776H78.1217Z" fill="white"/>
<path id="Vector_5" d="M98.086 10.3721C105.114 10.3721 107.885 14.2084 108.088 18.5909V35.5777H102.099V22.6697C102.099 18.1435 101.263 15.79 97.697 15.79C94.1314 15.79 92.5858 18.0014 92.3808 21.9589V35.5777H86.4542V10.9391H92.3808V14.1665C92.8088 12.6853 94.5818 10.5741 98.065 10.3721H98.086Z" fill="white"/>
<path id="Vector_6" d="M145.217 35.6494L137.558 10.0832L129.878 35.6494H126.863L117.717 6.64185H120.099L128.368 32.6345L136.252 6.64185H138.86L146.724 32.6345L155.013 6.64185H157.398L148.232 35.6494H145.216H145.217Z" fill="white"/>
<path id="Vector_7" d="M161.461 6.51929C162.641 6.51929 163.334 7.35419 163.334 8.53622C163.334 9.71825 162.643 10.5322 161.441 10.5322C160.24 10.5322 159.566 9.71825 159.566 8.53622C159.566 7.35419 160.258 6.51929 161.441 6.51929H161.462H161.461ZM160.238 35.6077V14.1366H162.722V35.6077H160.238Z" fill="white"/>
<path id="Vector_8" d="M165.29 33.5713V6.6001H167.754V32.512C167.796 33.1853 168.324 33.2661 168.875 33.2661H169.913V35.69H167.528C165.309 35.69 165.288 33.5713 165.288 33.5713H165.29Z" fill="white"/>
<path id="Vector_9" d="M172.035 33.5713V6.6001H174.497V32.512C174.539 33.1853 175.069 33.2661 175.618 33.2661H176.656V35.69H174.274C172.053 35.69 172.035 33.5713 172.035 33.5713Z" fill="white"/>
<path id="Vector_10" d="M181.221 6.51929C182.402 6.51929 183.096 7.35419 183.096 8.53622C183.096 9.71825 182.402 10.5322 181.201 10.5322C179.999 10.5322 179.326 9.71825 179.326 8.53622C179.326 7.35419 180.02 6.51929 181.201 6.51929H181.221ZM179.999 35.6077V14.1366H182.484V35.6077H179.999Z" fill="white"/>
<path id="Vector_11" d="M184.911 29.5581C184.911 25.9312 187.6 23.407 192.977 21.9602C196.42 20.9622 198.478 20.229 199.151 19.7398C199.925 19.1487 200.129 18.6999 200.129 18.1104C200.129 17.0301 199.456 16.1967 198.092 15.5653C197.297 15.3004 196.176 15.1583 194.731 15.1583C191.371 15.1583 188.415 16.2984 185.888 18.5802V16.0351C187.661 14.5673 191.185 13.0605 193.732 13.0605H195.259C200.393 13.0605 202.859 15.2406 202.859 20.2111V35.7136H200.414L200.352 32.3531C199.109 34.9401 196.706 36.2433 193.162 36.2433C188.068 36.2433 185.318 34.0019 184.911 29.5611V29.5581ZM198.62 31.6573C199.823 30.191 200.414 28.397 200.414 26.2589V20.9008C197.99 22.2041 195.219 23.3457 192.123 24.3437C188.801 25.6065 187.416 27.1551 187.416 29.1511C187.416 31.9221 189.984 33.7341 193.1 33.7341H193.854C195.708 33.7341 197.297 33.0428 198.621 31.6573H198.62Z" fill="white"/>
<path id="Vector_12" d="M230.927 13.5259C237.2 13.5259 239.196 17.9263 239.196 24.221V35.6074H236.671V24.2404C236.671 19.433 235.327 15.7059 230.518 15.7059C225.709 15.7059 223.713 19.1278 223.532 23.63V35.6089H221.005V24.2419C221.005 19.4345 219.661 15.7074 214.853 15.7074C210.31 15.7074 208.049 19.068 207.825 23.5088V35.6089H205.339V14.1378H207.825V17.6824C209.129 15.0954 211.471 13.5259 215.24 13.5259C219.66 13.5259 221.963 15.685 222.938 19.1682C224.018 15.685 226.462 13.5259 230.906 13.5259H230.925H230.927Z" fill="white"/>
</g>
<g id="Group_3">
<path id="Vector_13" d="M32.8574 2.73206H24.6416L10.2642 17.1094V29.4145L16.4257 35.582H32.8574L18.5324 24.7223L32.8574 2.73206ZM0 35.582H8.21585V2.72607L0 2.73206V35.582Z" fill="url(#paint0_linear_834_106)"/>
<path id="Vector_14" d="M53.2123 24.7091H35.4085C35.4295 25.116 35.2469 30.3723 41.7242 30.6985H41.9905C44.2513 30.5354 46.4493 30.2302 47.2857 27.5011H53.0701C53.0701 28.0921 51.2986 36.0565 42.0294 36.2196H41.582C33.9018 36.1388 29.3802 30.3529 29.3802 23.3041C29.3802 16.2553 33.9841 10.4499 41.3591 10.3706H41.6239C51.5649 10.8988 53.5609 18.8438 53.2138 24.7106L53.2123 24.7091ZM41.6434 15.8887C35.838 16.0518 35.3696 19.758 35.3696 20.3086H47.2453C47.2453 20.1036 47.2064 16.173 41.971 15.8887H41.6449H41.6434Z" fill="url(#paint1_linear_834_106)"/>
<path id="Vector_15" d="M69.5018 10.936H75.7082L65.9138 35.5776H61.9398L52.1454 10.936H58.3504L63.9283 25.1847L69.5048 10.936H69.5018Z" fill="url(#paint2_linear_834_106)"/>
<path id="Vector_16" d="M81.0753 0C83.0922 0 84.6797 1.89573 84.6797 3.64633C84.6797 5.39693 83.0922 7.27322 81.0543 7.27322C79.0164 7.27322 77.4484 5.37748 77.4484 3.64633C77.4484 1.91519 79.0179 0 81.0543 0H81.0753ZM78.1217 35.5776V10.936H84.0692V35.5776H78.1217Z" fill="url(#paint3_linear_834_106)"/>
<path id="Vector_17" d="M98.086 10.3721C105.114 10.3721 107.885 14.2084 108.088 18.5909V35.5777H102.099V22.6697C102.099 18.1435 101.263 15.79 97.697 15.79C94.1314 15.79 92.5858 18.0014 92.3808 21.9589V35.5777H86.4542V10.9391H92.3808V14.1665C92.8088 12.6853 94.5818 10.5741 98.065 10.3721H98.086Z" fill="url(#paint4_linear_834_106)"/>
<path id="Vector_18" d="M145.217 35.6494L137.558 10.0832L129.878 35.6494H126.863L117.717 6.64185H120.099L128.368 32.6345L136.252 6.64185H138.86L146.724 32.6345L155.013 6.64185H157.398L148.232 35.6494H145.216H145.217Z" fill="url(#paint5_linear_834_106)"/>
<path id="Vector_19" d="M161.461 6.51929C162.641 6.51929 163.334 7.35419 163.334 8.53622C163.334 9.71825 162.643 10.5322 161.441 10.5322C160.24 10.5322 159.566 9.71825 159.566 8.53622C159.566 7.35419 160.258 6.51929 161.441 6.51929H161.462H161.461ZM160.238 35.6077V14.1366H162.722V35.6077H160.238Z" fill="url(#paint6_linear_834_106)"/>
<path id="Vector_20" d="M165.29 33.5713V6.6001H167.754V32.512C167.796 33.1853 168.324 33.2661 168.875 33.2661H169.913V35.69H167.528C165.309 35.69 165.288 33.5713 165.288 33.5713H165.29Z" fill="url(#paint7_linear_834_106)"/>
<path id="Vector_21" d="M172.035 33.5713V6.6001H174.497V32.512C174.539 33.1853 175.069 33.2661 175.618 33.2661H176.656V35.69H174.274C172.053 35.69 172.035 33.5713 172.035 33.5713Z" fill="url(#paint8_linear_834_106)"/>
<path id="Vector_22" d="M181.221 6.51929C182.402 6.51929 183.096 7.35419 183.096 8.53622C183.096 9.71825 182.402 10.5322 181.201 10.5322C179.999 10.5322 179.326 9.71825 179.326 8.53622C179.326 7.35419 180.02 6.51929 181.201 6.51929H181.221ZM179.999 35.6077V14.1366H182.484V35.6077H179.999Z" fill="url(#paint9_linear_834_106)"/>
<path id="Vector_23" d="M184.911 29.5581C184.911 25.9312 187.6 23.407 192.977 21.9602C196.42 20.9622 198.478 20.229 199.151 19.7398C199.925 19.1487 200.129 18.6999 200.129 18.1104C200.129 17.0301 199.456 16.1967 198.092 15.5653C197.297 15.3004 196.176 15.1583 194.731 15.1583C191.371 15.1583 188.415 16.2984 185.888 18.5802V16.0351C187.661 14.5673 191.185 13.0605 193.732 13.0605H195.259C200.393 13.0605 202.859 15.2406 202.859 20.2111V35.7136H200.414L200.352 32.3531C199.109 34.9401 196.706 36.2433 193.162 36.2433C188.068 36.2433 185.318 34.0019 184.911 29.5611V29.5581ZM198.62 31.6573C199.823 30.191 200.414 28.397 200.414 26.2589V20.9008C197.99 22.2041 195.219 23.3457 192.123 24.3437C188.801 25.6065 187.416 27.1551 187.416 29.1511C187.416 31.9221 189.984 33.7341 193.1 33.7341H193.854C195.708 33.7341 197.297 33.0428 198.621 31.6573H198.62Z" fill="url(#paint10_linear_834_106)"/>
<path id="Vector_24" d="M230.927 13.5259C237.2 13.5259 239.196 17.9263 239.196 24.221V35.6074H236.671V24.2404C236.671 19.433 235.327 15.7059 230.518 15.7059C225.709 15.7059 223.713 19.1278 223.532 23.63V35.6089H221.005V24.2419C221.005 19.4345 219.661 15.7074 214.853 15.7074C210.31 15.7074 208.049 19.068 207.825 23.5088V35.6089H205.339V14.1378H207.825V17.6824C209.129 15.0954 211.471 13.5259 215.24 13.5259C219.66 13.5259 221.963 15.685 222.938 19.1682C224.018 15.685 226.462 13.5259 230.906 13.5259H230.925H230.927Z" fill="url(#paint11_linear_834_106)"/>
</g>
</g>
<defs>
<linearGradient id="paint0_linear_834_106" x1="0.00149624" y1="18.1194" x2="239.196" y2="18.1194" gradientUnits="userSpaceOnUse">
<stop stop-color="#81F2DC"/>
<stop offset="1" stop-color="#B3F79A"/>
</linearGradient>
<linearGradient id="paint1_linear_834_106" x1="0.00152876" y1="18.1196" x2="239.196" y2="18.1196" gradientUnits="userSpaceOnUse">
<stop stop-color="#81F2DC"/>
<stop offset="1" stop-color="#B3F79A"/>
</linearGradient>
<linearGradient id="paint2_linear_834_106" x1="0.00150877" y1="18.1195" x2="239.196" y2="18.1195" gradientUnits="userSpaceOnUse">
<stop stop-color="#81F2DC"/>
<stop offset="1" stop-color="#B3F79A"/>
</linearGradient>
<linearGradient id="paint3_linear_834_106" x1="0.00149045" y1="18.1195" x2="239.196" y2="18.1195" gradientUnits="userSpaceOnUse">
<stop stop-color="#81F2DC"/>
<stop offset="1" stop-color="#B3F79A"/>
</linearGradient>
<linearGradient id="paint4_linear_834_106" x1="0.00149847" y1="18.1196" x2="239.196" y2="18.1196" gradientUnits="userSpaceOnUse">
<stop stop-color="#81F2DC"/>
<stop offset="1" stop-color="#B3F79A"/>
</linearGradient>
<linearGradient id="paint5_linear_834_106" x1="0.00147167" y1="18.1195" x2="239.196" y2="18.1195" gradientUnits="userSpaceOnUse">
<stop stop-color="#81F2DC"/>
<stop offset="1" stop-color="#B3F79A"/>
</linearGradient>
<linearGradient id="paint6_linear_834_106" x1="0.00114993" y1="18.1196" x2="239.196" y2="18.1196" gradientUnits="userSpaceOnUse">
<stop stop-color="#81F2DC"/>
<stop offset="1" stop-color="#B3F79A"/>
</linearGradient>
<linearGradient id="paint7_linear_834_106" x1="0.00128169" y1="18.1196" x2="239.196" y2="18.1196" gradientUnits="userSpaceOnUse">
<stop stop-color="#81F2DC"/>
<stop offset="1" stop-color="#B3F79A"/>
</linearGradient>
<linearGradient id="paint8_linear_834_106" x1="0.00140571" y1="18.1196" x2="239.196" y2="18.1196" gradientUnits="userSpaceOnUse">
<stop stop-color="#81F2DC"/>
<stop offset="1" stop-color="#B3F79A"/>
</linearGradient>
<linearGradient id="paint9_linear_834_106" x1="0.00182001" y1="18.1196" x2="239.196" y2="18.1196" gradientUnits="userSpaceOnUse">
<stop stop-color="#81F2DC"/>
<stop offset="1" stop-color="#B3F79A"/>
</linearGradient>
<linearGradient id="paint10_linear_834_106" x1="0.00157322" y1="18.1193" x2="239.196" y2="18.1193" gradientUnits="userSpaceOnUse">
<stop stop-color="#81F2DC"/>
<stop offset="1" stop-color="#B3F79A"/>
</linearGradient>
<linearGradient id="paint11_linear_834_106" x1="0.00157968" y1="18.1193" x2="239.196" y2="18.1193" gradientUnits="userSpaceOnUse">
<stop stop-color="#81F2DC"/>
<stop offset="1" stop-color="#B3F79A"/>
</linearGradient>
</defs>
</svg>
