<svg width="567" height="383" viewBox="0 0 567 383" fill="none" xmlns="http://www.w3.org/2000/svg">
<g clip-path="url(#clip0_822_61)">
<path d="M362.329 383V334.294C362.329 334.294 381.309 368.825 362.329 383Z" fill="#F1F1F1"/>
<path d="M363.501 382.991L327.624 350.053C327.624 350.053 365.895 359.423 363.501 382.991Z" fill="#F1F1F1"/>
<path d="M567 15.5386H0.241699V284.485H567V15.5386Z" fill="#E5E5E5"/>
<path d="M550.794 38.6013H16.4482V262.992H550.794V38.6013Z" fill="white"/>
<path d="M566.758 0H0V24.0785H566.758V0Z" fill="url(#paint0_linear_822_61)"/>
<path d="M17.8926 16.4574C20.3573 16.4574 22.3553 14.4594 22.3553 11.9946C22.3553 9.52983 20.3573 7.53174 17.8926 7.53174C15.4279 7.53174 13.4299 9.52983 13.4299 11.9946C13.4299 14.4594 15.4279 16.4574 17.8926 16.4574Z" fill="white"/>
<path d="M34.8316 16.4574C37.2963 16.4574 39.2943 14.4594 39.2943 11.9946C39.2943 9.52983 37.2963 7.53174 34.8316 7.53174C32.3669 7.53174 30.3689 9.52983 30.3689 11.9946C30.3689 14.4594 32.3669 16.4574 34.8316 16.4574Z" fill="white"/>
<path d="M51.7713 16.4574C54.236 16.4574 56.234 14.4594 56.234 11.9946C56.234 9.52983 54.236 7.53174 51.7713 7.53174C49.3066 7.53174 47.3086 9.52983 47.3086 11.9946C47.3086 14.4594 49.3066 16.4574 51.7713 16.4574Z" fill="white"/>
<path d="M103.992 89.6836C103.409 89.6836 102.849 89.9154 102.436 90.3281C102.024 90.7407 101.792 91.3003 101.792 91.8839C101.792 92.4674 102.024 93.0271 102.436 93.4397C102.849 93.8524 103.409 94.0842 103.992 94.0842H164.11C164.693 94.0842 165.253 93.8524 165.665 93.4397C166.078 93.0271 166.31 92.4674 166.31 91.8839C166.31 91.3003 166.078 90.7407 165.665 90.3281C165.253 89.9154 164.693 89.6836 164.11 89.6836H103.992Z" fill="#3F3D56"/>
<path d="M69.9924 119.981C69.4089 119.981 68.8493 120.213 68.4367 120.626C68.024 121.039 67.7922 121.598 67.7922 122.182C67.7922 122.765 68.024 123.325 68.4367 123.738C68.8493 124.15 69.4089 124.382 69.9924 124.382H198.109C198.693 124.382 199.252 124.15 199.665 123.738C200.078 123.325 200.309 122.765 200.309 122.182C200.309 121.598 200.078 121.039 199.665 120.626C199.252 120.213 198.693 119.981 198.109 119.981H69.9924Z" fill="#CCCCCC"/>
<path d="M69.9924 137.487C69.4089 137.487 68.8493 137.719 68.4367 138.132C68.024 138.544 67.7922 139.104 67.7922 139.687C67.7922 140.271 68.024 140.831 68.4367 141.243C68.8493 141.656 69.4089 141.888 69.9924 141.888H198.109C198.693 141.888 199.252 141.656 199.665 141.243C200.078 140.831 200.309 140.271 200.309 139.687C200.309 139.104 200.078 138.544 199.665 138.132C199.252 137.719 198.693 137.487 198.109 137.487H69.9924Z" fill="#CCCCCC"/>
<path d="M69.9924 154.992C69.4089 154.992 68.8493 155.224 68.4367 155.637C68.024 156.05 67.7922 156.609 67.7922 157.193C67.7922 157.776 68.024 158.336 68.4367 158.749C68.8493 159.161 69.4089 159.393 69.9924 159.393H198.109C198.693 159.393 199.252 159.161 199.665 158.749C200.078 158.336 200.309 157.776 200.309 157.193C200.309 156.609 200.078 156.05 199.665 155.637C199.252 155.224 198.693 154.992 198.109 154.992H69.9924Z" fill="#CCCCCC"/>
<path d="M69.9924 172.498C69.4089 172.498 68.8493 172.73 68.4367 173.142C68.024 173.555 67.7922 174.115 67.7922 174.698C67.7922 175.282 68.024 175.841 68.4367 176.254C68.8493 176.667 69.4089 176.898 69.9924 176.898H198.109C198.693 176.898 199.252 176.667 199.665 176.254C200.078 175.841 200.309 175.282 200.309 174.698C200.309 174.115 200.078 173.555 199.665 173.142C199.252 172.73 198.693 172.498 198.109 172.498H69.9924Z" fill="#CCCCCC"/>
<path d="M69.9924 190.003C69.4089 190.003 68.8493 190.235 68.4367 190.648C68.024 191.06 67.7922 191.62 67.7922 192.203C67.7922 192.787 68.024 193.347 68.4367 193.759C68.8493 194.172 69.4089 194.404 69.9924 194.404H198.109C198.693 194.404 199.252 194.172 199.665 193.759C200.078 193.347 200.309 192.787 200.309 192.203C200.309 191.62 200.078 191.06 199.665 190.648C199.252 190.235 198.693 190.003 198.109 190.003H69.9924Z" fill="#CCCCCC"/>
<path d="M69.9924 207.509C69.4089 207.509 68.8493 207.741 68.4367 208.153C68.024 208.566 67.7922 209.126 67.7922 209.709C67.7922 210.293 68.024 210.852 68.4367 211.265C68.8493 211.678 69.4089 211.909 69.9924 211.909H198.109C198.693 211.909 199.252 211.678 199.665 211.265C200.078 210.852 200.309 210.293 200.309 209.709C200.309 209.126 200.078 208.566 199.665 208.153C199.252 207.741 198.693 207.509 198.109 207.509H69.9924Z" fill="#CCCCCC"/>
<path d="M492.631 212.851H298.663C297.366 212.85 296.123 212.334 295.207 211.417C294.29 210.501 293.774 209.258 293.773 207.961V93.8579C293.774 92.5614 294.29 91.3184 295.207 90.4016C296.123 89.4849 297.366 88.9692 298.663 88.9678H492.631C493.928 88.9692 495.171 89.4849 496.087 90.4016C497.004 91.3184 497.52 92.5614 497.521 93.8579V207.961C497.52 209.258 497.004 210.501 496.087 211.417C495.171 212.334 493.928 212.85 492.631 212.851Z" fill="#F1F1F1"/>
<path d="M518.148 238.949H324.18C322.883 238.948 321.64 238.432 320.723 237.515C319.807 236.599 319.291 235.356 319.29 234.059V119.956C319.291 118.659 319.807 117.416 320.723 116.5C321.64 115.583 322.883 115.067 324.18 115.066H518.148C519.444 115.067 520.687 115.583 521.604 116.5C522.521 117.416 523.036 118.659 523.038 119.956V234.059C523.036 235.356 522.521 236.599 521.604 237.515C520.687 238.432 519.444 238.948 518.148 238.949Z" fill="white"/>
<path d="M518.148 240.613H324.18C322.442 240.611 320.776 239.92 319.548 238.691C318.319 237.462 317.628 235.796 317.626 234.059V119.956C317.628 118.218 318.319 116.552 319.548 115.324C320.776 114.095 322.442 113.404 324.18 113.402H518.148C519.886 113.404 521.552 114.095 522.78 115.323C524.009 116.552 524.7 118.218 524.702 119.956V234.059C524.7 235.797 524.009 237.462 522.78 238.691C521.552 239.92 519.886 240.611 518.148 240.613ZM324.18 116.73C323.325 116.731 322.505 117.071 321.9 117.676C321.295 118.281 320.955 119.101 320.954 119.956V234.059C320.955 234.914 321.295 235.734 321.9 236.339C322.505 236.944 323.325 237.284 324.18 237.285H518.148C519.003 237.284 519.823 236.944 520.428 236.339C521.033 235.734 521.373 234.914 521.374 234.059V119.956C521.373 119.101 521.033 118.281 520.428 117.676C519.823 117.071 519.003 116.731 518.148 116.73H324.18Z" fill="#3F3D56"/>
<path d="M437.234 192.176C437.234 201.196 429.922 208.508 420.902 208.508C411.883 208.508 404.571 201.196 404.571 192.176C404.571 183.156 411.883 175.844 420.902 175.844C429.922 175.844 437.234 183.156 437.234 192.176Z" fill="#0F0F0F" stroke="white"/>
<path d="M453.372 175.983C452.381 174.932 451.191 174.089 449.87 173.505C448.548 172.921 447.124 172.607 445.68 172.581C444.236 172.555 442.801 172.818 441.46 173.355C440.119 173.892 438.899 174.691 437.871 175.706L383.283 230.296C376.29 237.321 368.991 226.576 364.326 222.243C353.11 211.149 340.994 231.951 333.455 237.908H508.873V235.675L453.372 175.983Z" fill="url(#paint1_linear_822_61)"/>
<path d="M416.197 382.716H159.685C159.506 382.716 159.335 382.645 159.209 382.519C159.083 382.392 159.012 382.221 159.012 382.043C159.012 381.864 159.083 381.693 159.209 381.567C159.335 381.44 159.506 381.369 159.685 381.369H416.197C416.376 381.369 416.547 381.44 416.673 381.567C416.8 381.693 416.871 381.864 416.871 382.043C416.871 382.221 416.8 382.392 416.673 382.519C416.547 382.645 416.376 382.716 416.197 382.716Z" fill="#CBCBCB"/>
<path d="M271.237 270.426C270.447 269.831 269.796 269.069 269.331 268.196C268.866 267.322 268.599 266.357 268.547 265.368C268.496 264.38 268.662 263.392 269.033 262.475C269.405 261.557 269.973 260.732 270.698 260.058L260.994 238.042L273.322 240.131L280.647 260.718C281.698 262.011 282.239 263.644 282.167 265.309C282.095 266.974 281.414 268.554 280.254 269.751C279.094 270.948 277.536 271.677 275.874 271.802C274.212 271.926 272.562 271.437 271.237 270.426Z" fill="#A0616A"/>
<path d="M252.665 172.875L256.198 172.168C256.198 172.168 261.143 174.288 260.436 180.645C259.73 187.003 270.326 220.91 270.326 220.91L279.863 249.166L266.441 251.991L257.611 219.497L252.665 172.875Z" fill="#81F2DC"/>
<path d="M236.644 280.932H313.402C314.92 280.93 316.374 280.327 317.447 279.254C318.52 278.181 319.124 276.726 319.125 275.209V267.803C319.124 266.285 318.52 264.831 317.447 263.758C316.374 262.685 314.92 262.082 313.402 262.08H236.644C235.127 262.082 233.672 262.685 232.599 263.758C231.526 264.831 230.923 266.286 230.921 267.803V275.209C230.923 276.726 231.526 278.181 232.599 279.254C233.672 280.326 235.127 280.93 236.644 280.932Z" fill="url(#paint2_linear_822_61)"/>
<path d="M241.19 362.242L248.933 365.1L263.645 336.593L252.215 332.374L241.19 362.242Z" fill="#A0616A"/>
<path d="M255.282 364.929L240.347 359.417L236.876 368.82L261.214 377.803C261.67 376.569 261.878 375.256 261.827 373.941C261.776 372.626 261.466 371.333 260.915 370.138C260.364 368.942 259.583 367.867 258.616 366.974C257.65 366.08 256.517 365.385 255.282 364.929Z" fill="#2F2E41"/>
<path d="M226.389 374.097L234.636 373.723L237.116 341.739L224.945 342.292L226.389 374.097Z" fill="#A0616A"/>
<path d="M240.649 371.228H224.729V381.251H250.672C250.672 379.935 250.413 378.632 249.909 377.415C249.406 376.199 248.667 375.094 247.737 374.164C246.806 373.233 245.701 372.495 244.485 371.991C243.269 371.487 241.965 371.228 240.649 371.228Z" fill="#2F2E41"/>
<path d="M263.262 243.515C269.669 250.837 273.436 260.097 273.958 269.813L276.684 320.512L252.665 362.896L239.243 355.832L255.491 324.044L245.601 293.669L218.757 272.477L220.876 242.102L263.262 243.515Z" fill="#2F2E41"/>
<path d="M225.821 269.651L218.757 272.477L224.408 369.959L240.656 367.84L245.601 293.669L225.821 269.651Z" fill="#2F2E41"/>
<path d="M240.854 260.08C240.68 259.106 240.294 258.182 239.724 257.373C239.154 256.564 238.413 255.889 237.554 255.397C236.695 254.906 235.739 254.608 234.752 254.526C233.766 254.443 232.773 254.578 231.845 254.921L216.574 236.328L212.877 248.271L227.945 264.097C228.624 265.618 229.838 266.838 231.356 267.525C232.875 268.211 234.592 268.317 236.183 267.822C237.775 267.327 239.129 266.266 239.99 264.839C240.851 263.412 241.158 261.719 240.854 260.08Z" fill="#A0616A"/>
<path d="M235.218 161.226C226.084 161.226 218.68 153.823 218.68 144.69C218.68 135.557 226.084 128.153 235.218 128.153C244.351 128.153 251.755 135.557 251.755 144.69C251.755 153.823 244.351 161.226 235.218 161.226Z" fill="#A0616A"/>
<path d="M210.633 176.054C210.633 176.054 229.706 158.041 255.844 171.815C255.844 171.815 262.555 239.983 266.794 247.046C266.794 247.046 230.059 242.102 220.169 244.927C220.169 244.927 220.169 215.259 213.811 203.956C207.454 192.654 210.633 176.054 210.633 176.054Z" fill="#81F2DC"/>
<path d="M218.05 177.82L210.299 176.387C206.43 178.637 203.435 182.129 201.802 186.296C198.977 193.36 191.206 227.974 191.206 227.974L221.582 258.349L227.94 249.166L208.867 223.735L218.757 202.544L218.05 177.82Z" fill="#81F2DC"/>
<path d="M221.072 153.538C221.001 153.33 220.979 153.109 221.006 152.891C221.034 152.674 221.111 152.465 221.232 152.282C221.352 152.099 221.513 151.946 221.702 151.834C221.891 151.723 222.103 151.656 222.322 151.64C222.77 151.664 223.208 151.779 223.611 151.977C224.013 152.176 224.371 152.454 224.663 152.794C225.261 153.484 225.958 154.083 226.73 154.57C227.53 154.973 228.615 154.916 229.071 154.147C229.5 153.425 229.206 152.458 228.947 151.62C228.287 149.486 227.918 147.274 227.85 145.042C227.775 142.55 228.126 139.95 229.506 138.007C231.286 135.499 234.469 134.547 237.481 134.616C240.494 134.685 243.457 135.615 246.441 136.203C247.471 136.406 248.682 136.51 249.371 135.711C250.104 134.862 249.835 133.489 249.523 132.342C248.715 129.368 247.857 126.293 245.978 123.891C243.947 121.395 241.045 119.762 237.857 119.319C234.797 118.94 231.69 119.293 228.793 120.348C224.072 121.836 219.918 124.73 216.887 128.642C213.762 132.803 212.411 138.032 213.131 143.185C213.834 147.674 216.212 151.729 219.787 154.533" fill="#2F2E41"/>
</g>
<defs>
<linearGradient id="paint0_linear_822_61" x1="0" y1="12.0392" x2="566.758" y2="12.0392" gradientUnits="userSpaceOnUse">
<stop stop-color="#81F2DC"/>
<stop offset="1" stop-color="#B3F79A"/>
</linearGradient>
<linearGradient id="paint1_linear_822_61" x1="333.455" y1="205.244" x2="508.873" y2="205.244" gradientUnits="userSpaceOnUse">
<stop stop-color="#81F2DC"/>
<stop offset="1" stop-color="#B3F79A"/>
</linearGradient>
<linearGradient id="paint2_linear_822_61" x1="319.125" y1="271.506" x2="230.921" y2="271.506" gradientUnits="userSpaceOnUse">
<stop stop-color="#81F2DC"/>
<stop offset="1" stop-color="#B3F79A"/>
</linearGradient>
<clipPath id="clip0_822_61">
<rect width="567" height="383" fill="white"/>
</clipPath>
</defs>
</svg>
