<svg width="27" height="10" viewBox="0 0 27 10" fill="none" xmlns="http://www.w3.org/2000/svg">
<g id="Vector">
<path d="M22.8541 9.35378L26.8541 5.35378C26.9006 5.30735 26.9375 5.2522 26.9627 5.19151C26.9878 5.13081 27.0008 5.06574 27.0008 5.00003C27.0008 4.93433 26.9878 4.86926 26.9627 4.80856C26.9375 4.74787 26.9006 4.69272 26.8541 4.64628L22.8541 0.646284C22.7603 0.552464 22.6331 0.499756 22.5004 0.499756C22.3677 0.499756 22.2405 0.552464 22.1466 0.646284C22.0528 0.740104 22.0001 0.867352 22.0001 1.00003C22.0001 1.13272 22.0528 1.25996 22.1466 1.35378L25.2929 4.50003H1.70789V5.00003V5.50003H25.2929L22.1466 8.64628C22.0528 8.7401 22.0001 8.86735 22.0001 9.00003C22.0001 9.13272 22.0528 9.25996 22.1466 9.35378C22.2405 9.4476 22.3677 9.50031 22.5004 9.50031C22.6331 9.50031 22.7603 9.4476 22.8541 9.35378Z" fill="white"/>
<path d="M0.0381136 5.19151C0.0632757 5.2522 0.100155 5.30735 0.146643 5.35378C0.262801 5.46502 0.33965 5.49904 0.5 5.50003H1.70789V5.00003V4.50003L0.5 4.49976C0.352579 4.50709 0.228666 4.56435 0.146643 4.64628C0.100155 4.69272 0.0632757 4.74787 0.0381136 4.80856C0.0129514 4.86926 0 4.93433 0 5.00003C0 5.06574 0.0129514 5.13081 0.0381136 5.19151Z" fill="white"/>
</g>
</svg>
