<svg width="24" height="24" viewBox="0 0 24 24" fill="none" xmlns="http://www.w3.org/2000/svg">
<g id="ChatTeardropText">
<path id="Vector" d="M15.3751 10.5C15.3751 10.5995 15.3356 10.6948 15.2652 10.7652C15.1949 10.8355 15.0995 10.875 15.0001 10.875H9.00006C8.9006 10.875 8.80522 10.8355 8.7349 10.7652C8.66457 10.6948 8.62506 10.5995 8.62506 10.5C8.62506 10.4005 8.66457 10.3052 8.7349 10.2348C8.80522 10.1645 8.9006 10.125 9.00006 10.125H15.0001C15.0995 10.125 15.1949 10.1645 15.2652 10.2348C15.3356 10.3052 15.3751 10.4005 15.3751 10.5ZM15.0001 13.125H9.00006C8.9006 13.125 8.80522 13.1645 8.7349 13.2348C8.66457 13.3052 8.62506 13.4005 8.62506 13.5C8.62506 13.5995 8.66457 13.6948 8.7349 13.7652C8.80522 13.8355 8.9006 13.875 9.00006 13.875H15.0001C15.0995 13.875 15.1949 13.8355 15.2652 13.7652C15.3356 13.6948 15.3751 13.5995 15.3751 13.5C15.3751 13.4005 15.3356 13.3052 15.2652 13.2348C15.1949 13.1645 15.0995 13.125 15.0001 13.125ZM21.3751 11.625C21.3723 14.0111 20.4232 16.2987 18.736 17.9859C17.0488 19.6732 14.7612 20.6223 12.3751 20.625H4.46912C4.17904 20.6248 3.9009 20.5094 3.69578 20.3043C3.49066 20.0992 3.37531 19.821 3.37506 19.5309V11.625C3.37506 9.23805 4.32327 6.94887 6.0111 5.26104C7.69893 3.57321 9.98811 2.625 12.3751 2.625C14.762 2.625 17.0512 3.57321 18.739 5.26104C20.4268 6.94887 21.3751 9.23805 21.3751 11.625ZM20.6251 11.625C20.6251 9.43696 19.7559 7.33854 18.2087 5.79137C16.6615 4.24419 14.5631 3.375 12.3751 3.375C10.187 3.375 8.08861 4.24419 6.54143 5.79137C4.99426 7.33854 4.12506 9.43696 4.12506 11.625V19.5309C4.12506 19.6222 4.16131 19.7097 4.22583 19.7742C4.29036 19.8388 4.37787 19.875 4.46912 19.875H12.3751C14.5623 19.8725 16.6593 19.0025 18.206 17.4559C19.7526 15.9093 20.6226 13.8123 20.6251 11.625Z" fill="url(#paint0_linear_830_42)"/>
</g>
<defs>
<linearGradient id="paint0_linear_830_42" x1="3.37506" y1="11.625" x2="21.3751" y2="11.625" gradientUnits="userSpaceOnUse">
<stop stop-color="#81F2DC"/>
<stop offset="1" stop-color="#B3F79A"/>
</linearGradient>
</defs>
</svg>
