<svg width="25" height="24" viewBox="0 0 25 24" fill="none" xmlns="http://www.w3.org/2000/svg">
<g id="GithubLogo" clip-path="url(#clip0_830_34)">
<path id="Vector" d="M19.6194 7.14002C19.8642 6.43084 19.9534 5.67725 19.8809 4.93051C19.8084 4.18377 19.576 3.4614 19.1994 2.81252C19.1665 2.75557 19.1192 2.70827 19.0623 2.67536C19.0053 2.64245 18.9408 2.62509 18.875 2.62502C18.0277 2.62262 17.1925 2.82614 16.4412 3.21809C15.69 3.61004 15.0453 4.17866 14.5625 4.87502H11.9375C11.4547 4.17866 10.81 3.61004 10.0588 3.21809C9.30755 2.82614 8.47233 2.62262 7.625 2.62502C7.55924 2.62509 7.49465 2.64245 7.43772 2.67536C7.38078 2.70827 7.33351 2.75557 7.30063 2.81252C6.92402 3.4614 6.69157 4.18377 6.61909 4.93051C6.54662 5.67725 6.63582 6.43084 6.88062 7.14002C6.39465 7.92448 6.13328 8.82726 6.125 9.75002V10.5C6.12649 11.7925 6.64058 13.0316 7.5545 13.9455C8.46842 14.8594 9.70753 15.3735 11 15.375H11.1322C10.7401 15.691 10.4236 16.0908 10.2061 16.545C9.98855 16.9993 9.87542 17.4964 9.875 18V19.125H7.25C6.55381 19.125 5.88613 18.8485 5.39384 18.3562C4.90156 17.8639 4.625 17.1962 4.625 16.5C4.625 15.6049 4.26942 14.7465 3.63649 14.1135C3.00355 13.4806 2.14511 13.125 1.25 13.125C1.15054 13.125 1.05516 13.1645 0.984835 13.2349C0.914509 13.3052 0.875 13.4006 0.875 13.5C0.875 13.5995 0.914509 13.6949 0.984835 13.7652C1.05516 13.8355 1.15054 13.875 1.25 13.875C1.94619 13.875 2.61387 14.1516 3.10616 14.6439C3.59844 15.1361 3.875 15.8038 3.875 16.5C3.875 17.3951 4.23058 18.2536 4.86351 18.8865C5.49645 19.5194 6.35489 19.875 7.25 19.875H9.875V21.75C9.875 21.8495 9.91451 21.9449 9.98483 22.0152C10.0552 22.0855 10.1505 22.125 10.25 22.125C10.3495 22.125 10.4448 22.0855 10.5152 22.0152C10.5855 21.9449 10.625 21.8495 10.625 21.75V18C10.625 17.3038 10.9016 16.6361 11.3938 16.1439C11.8861 15.6516 12.5538 15.375 13.25 15.375C13.9462 15.375 14.6139 15.6516 15.1062 16.1439C15.5984 16.6361 15.875 17.3038 15.875 18V21.75C15.875 21.8495 15.9145 21.9449 15.9848 22.0152C16.0552 22.0855 16.1505 22.125 16.25 22.125C16.3495 22.125 16.4448 22.0855 16.5152 22.0152C16.5855 21.9449 16.625 21.8495 16.625 21.75V18C16.6246 17.4964 16.5115 16.9993 16.2939 16.545C16.0764 16.0908 15.7599 15.691 15.3678 15.375H15.5C16.7925 15.3735 18.0316 14.8594 18.9455 13.9455C19.8594 13.0316 20.3735 11.7925 20.375 10.5V9.75002C20.3667 8.82726 20.1054 7.92448 19.6194 7.14002ZM19.625 10.5C19.6238 11.5937 19.1888 12.6421 18.4154 13.4155C17.6421 14.1888 16.5936 14.6238 15.5 14.625H11C9.90636 14.6238 8.85787 14.1888 8.08455 13.4155C7.31124 12.6421 6.87624 11.5937 6.875 10.5V9.75002C6.88471 8.9186 7.13583 8.10791 7.59781 7.41658C7.63593 7.36571 7.66049 7.30598 7.66918 7.243C7.67787 7.18003 7.67041 7.11588 7.6475 7.05658C7.41828 6.46483 7.3173 5.83116 7.35124 5.19748C7.38518 4.56379 7.55326 3.94453 7.84437 3.38065C8.56258 3.41398 9.26222 3.61963 9.88422 3.98023C10.5062 4.34084 11.0323 4.84581 11.4181 5.45252C11.4521 5.50546 11.4988 5.54901 11.554 5.57916C11.6093 5.6093 11.6712 5.62507 11.7341 5.62502H14.7659C14.8288 5.62507 14.8907 5.6093 14.946 5.57916C15.0012 5.54901 15.0479 5.50546 15.0819 5.45252C15.4677 4.84581 15.9938 4.34084 16.6158 3.98023C17.2378 3.61963 17.9374 3.41398 18.6556 3.38065C18.9467 3.94453 19.1148 4.56379 19.1488 5.19748C19.1827 5.83116 19.0817 6.46483 18.8525 7.05658C18.8298 7.11575 18.8224 7.17972 18.8311 7.24252C18.8398 7.30531 18.8642 7.36487 18.9022 7.41565C19.3639 8.10745 19.615 8.91835 19.625 9.75002V10.5Z" fill="url(#paint0_linear_830_34)"/>
</g>
<defs>
<linearGradient id="paint0_linear_830_34" x1="0.875" y1="12.375" x2="20.375" y2="12.375" gradientUnits="userSpaceOnUse">
<stop stop-color="#81F2DC"/>
<stop offset="1" stop-color="#B3F79A"/>
</linearGradient>
<clipPath id="clip0_830_34">
<rect width="24" height="24" fill="white" transform="translate(0.5)"/>
</clipPath>
</defs>
</svg>
