<svg width="24" height="24" viewBox="0 0 24 24" fill="none" xmlns="http://www.w3.org/2000/svg">
<g id="InstagramLogo">
<path id="Vector" d="M12 7.875C11.1842 7.875 10.3866 8.11693 9.70827 8.57019C9.02992 9.02345 8.50121 9.66769 8.189 10.4214C7.87679 11.1752 7.7951 12.0046 7.95426 12.8047C8.11343 13.6049 8.50629 14.3399 9.08318 14.9168C9.66008 15.4937 10.3951 15.8866 11.1953 16.0457C11.9954 16.2049 12.8248 16.1232 13.5786 15.811C14.3323 15.4988 14.9766 14.9701 15.4298 14.2917C15.8831 13.6134 16.125 12.8158 16.125 12C16.1238 10.9064 15.6888 9.85787 14.9154 9.08455C14.1421 8.31124 13.0936 7.87624 12 7.875ZM12 15.375C11.3325 15.375 10.68 15.1771 10.125 14.8062C9.56993 14.4354 9.13735 13.9083 8.88191 13.2916C8.62646 12.6749 8.55962 11.9963 8.68985 11.3416C8.82007 10.6869 9.14151 10.0855 9.61351 9.61351C10.0855 9.14151 10.6869 8.82007 11.3416 8.68985C11.9963 8.55962 12.6749 8.62646 13.2916 8.88191C13.9083 9.13735 14.4354 9.56993 14.8062 10.125C15.1771 10.68 15.375 11.3325 15.375 12C15.375 12.8951 15.0194 13.7535 14.3865 14.3865C13.7535 15.0194 12.8951 15.375 12 15.375ZM16.5 2.625H7.5C6.20753 2.62649 4.96842 3.14058 4.0545 4.0545C3.14058 4.96842 2.62649 6.20753 2.625 7.5V16.5C2.62649 17.7925 3.14058 19.0316 4.0545 19.9455C4.96842 20.8594 6.20753 21.3735 7.5 21.375H16.5C17.7925 21.3735 19.0316 20.8594 19.9455 19.9455C20.8594 19.0316 21.3735 17.7925 21.375 16.5V7.5C21.3735 6.20753 20.8594 4.96842 19.9455 4.0545C19.0316 3.14058 17.7925 2.62649 16.5 2.625ZM20.625 16.5C20.6238 17.5936 20.1888 18.6421 19.4154 19.4154C18.6421 20.1888 17.5936 20.6238 16.5 20.625H7.5C6.40636 20.6238 5.35787 20.1888 4.58455 19.4154C3.81124 18.6421 3.37624 17.5936 3.375 16.5V7.5C3.37624 6.40636 3.81124 5.35787 4.58455 4.58455C5.35787 3.81124 6.40636 3.37624 7.5 3.375H16.5C17.5936 3.37624 18.6421 3.81124 19.4154 4.58455C20.1888 5.35787 20.6238 6.40636 20.625 7.5V16.5ZM17.625 7.125C17.625 7.27334 17.581 7.41834 17.4986 7.54168C17.4162 7.66501 17.2991 7.76114 17.162 7.81791C17.025 7.87468 16.8742 7.88953 16.7287 7.86059C16.5832 7.83165 16.4496 7.76022 16.3447 7.65533C16.2398 7.55044 16.1683 7.4168 16.1394 7.27132C16.1105 7.12583 16.1253 6.97503 16.1821 6.83799C16.2389 6.70094 16.335 6.58381 16.4583 6.5014C16.5817 6.41899 16.7267 6.375 16.875 6.375C17.0739 6.375 17.2647 6.45402 17.4053 6.59467C17.546 6.73532 17.625 6.92609 17.625 7.125Z" fill="url(#paint0_linear_830_22)"/>
</g>
<defs>
<linearGradient id="paint0_linear_830_22" x1="2.625" y1="12" x2="21.375" y2="12" gradientUnits="userSpaceOnUse">
<stop stop-color="#81F2DC"/>
<stop offset="1" stop-color="#B3F79A"/>
</linearGradient>
</defs>
</svg>
