<svg width="24" height="24" viewBox="0 0 24 24" fill="none" xmlns="http://www.w3.org/2000/svg">
<g id="LinkedinLogo">
<path id="Vector" d="M20.25 2.625H3.75C3.45163 2.625 3.16548 2.74353 2.9545 2.9545C2.74353 3.16548 2.625 3.45163 2.625 3.75V20.25C2.625 20.5484 2.74353 20.8345 2.9545 21.0455C3.16548 21.2565 3.45163 21.375 3.75 21.375H20.25C20.5484 21.375 20.8345 21.2565 21.0455 21.0455C21.2565 20.8345 21.375 20.5484 21.375 20.25V3.75C21.375 3.45163 21.2565 3.16548 21.0455 2.9545C20.8345 2.74353 20.5484 2.625 20.25 2.625ZM20.625 20.25C20.625 20.3495 20.5855 20.4448 20.5152 20.5152C20.4448 20.5855 20.3495 20.625 20.25 20.625H3.75C3.65054 20.625 3.55516 20.5855 3.48484 20.5152C3.41451 20.4448 3.375 20.3495 3.375 20.25V3.75C3.375 3.65054 3.41451 3.55516 3.48484 3.48484C3.55516 3.41451 3.65054 3.375 3.75 3.375H20.25C20.3495 3.375 20.4448 3.41451 20.5152 3.48484C20.5855 3.55516 20.625 3.65054 20.625 3.75V20.25ZM8.625 10.5V16.5C8.625 16.5995 8.58549 16.6948 8.51517 16.7652C8.44484 16.8355 8.34946 16.875 8.25 16.875C8.15054 16.875 8.05516 16.8355 7.98483 16.7652C7.91451 16.6948 7.875 16.5995 7.875 16.5V10.5C7.875 10.4005 7.91451 10.3052 7.98483 10.2348C8.05516 10.1645 8.15054 10.125 8.25 10.125C8.34946 10.125 8.44484 10.1645 8.51517 10.2348C8.58549 10.3052 8.625 10.4005 8.625 10.5ZM16.875 13.125V16.5C16.875 16.5995 16.8355 16.6948 16.7652 16.7652C16.6948 16.8355 16.5995 16.875 16.5 16.875C16.4005 16.875 16.3052 16.8355 16.2348 16.7652C16.1645 16.6948 16.125 16.5995 16.125 16.5V13.125C16.125 12.5283 15.8879 11.956 15.466 11.534C15.044 11.1121 14.4717 10.875 13.875 10.875C13.2783 10.875 12.706 11.1121 12.284 11.534C11.8621 11.956 11.625 12.5283 11.625 13.125V16.5C11.625 16.5995 11.5855 16.6948 11.5152 16.7652C11.4448 16.8355 11.3495 16.875 11.25 16.875C11.1505 16.875 11.0552 16.8355 10.9848 16.7652C10.9145 16.6948 10.875 16.5995 10.875 16.5V10.5C10.875 10.4005 10.9145 10.3052 10.9848 10.2348C11.0552 10.1645 11.1505 10.125 11.25 10.125C11.3495 10.125 11.4448 10.1645 11.5152 10.2348C11.5855 10.3052 11.625 10.4005 11.625 10.5V11.1441C12.0279 10.6873 12.5602 10.3639 13.1513 10.217C13.7424 10.07 14.3642 10.1065 14.9341 10.3215C15.5039 10.5366 15.9949 10.9199 16.3416 11.4207C16.6883 11.9215 16.8743 12.5159 16.875 13.125ZM9 7.875C9 8.02334 8.95601 8.16834 8.8736 8.29168C8.79119 8.41501 8.67406 8.51114 8.53701 8.56791C8.39997 8.62468 8.24917 8.63953 8.10368 8.61059C7.9582 8.58165 7.82456 8.51022 7.71967 8.40533C7.61478 8.30044 7.54335 8.1668 7.51441 8.02132C7.48547 7.87583 7.50032 7.72503 7.55709 7.58799C7.61386 7.45094 7.70999 7.33381 7.83332 7.2514C7.95666 7.16899 8.10166 7.125 8.25 7.125C8.44891 7.125 8.63968 7.20402 8.78033 7.34467C8.92098 7.48532 9 7.67609 9 7.875Z" fill="url(#paint0_linear_830_26)"/>
</g>
<defs>
<linearGradient id="paint0_linear_830_26" x1="2.625" y1="12" x2="21.375" y2="12" gradientUnits="userSpaceOnUse">
<stop stop-color="#81F2DC"/>
<stop offset="1" stop-color="#B3F79A"/>
</linearGradient>
</defs>
</svg>
