<svg width="16" height="21" viewBox="0 0 16 21" fill="none" xmlns="http://www.w3.org/2000/svg">
<path id="Vector" d="M8 4.68192C7.2808 4.68192 6.57774 4.89519 5.97974 5.29476C5.38175 5.69433 4.91567 6.26225 4.64044 6.92671C4.36521 7.59117 4.2932 8.32232 4.43351 9.0277C4.57382 9.73309 4.92015 10.381 5.4287 10.8896C5.93726 11.3981 6.5852 11.7445 7.29058 11.8848C7.99597 12.0251 8.72712 11.9531 9.39158 11.6778C10.056 11.4026 10.624 10.9365 11.0235 10.3385C11.4231 9.74054 11.6364 9.03749 11.6364 8.31828C11.6364 7.35386 11.2532 6.42894 10.5713 5.74699C9.88935 5.06503 8.96442 4.68192 8 4.68192ZM8 10.5001C7.56848 10.5001 7.14665 10.3721 6.78785 10.1324C6.42905 9.89266 6.1494 9.5519 5.98426 9.15323C5.81913 8.75455 5.77592 8.31586 5.86011 7.89263C5.94429 7.4694 6.15209 7.08064 6.45722 6.7755C6.76235 6.47037 7.15112 6.26257 7.57435 6.17839C7.99758 6.0942 8.43627 6.13741 8.83495 6.30255C9.23362 6.46768 9.57438 6.74733 9.81412 7.10613C10.0539 7.46493 10.1818 7.88676 10.1818 8.31828C10.1818 8.89694 9.95195 9.45189 9.54278 9.86106C9.13361 10.2702 8.57865 10.5001 8 10.5001ZM8 0.318283C5.87901 0.320689 3.84557 1.16432 2.3458 2.66409C0.846033 4.16386 0.00240612 6.19729 0 8.31828C0 11.1728 1.31909 14.1983 3.81818 17.0683C4.94111 18.3652 6.20496 19.533 7.58636 20.5501C7.70865 20.6358 7.85433 20.6817 8.00364 20.6817C8.15294 20.6817 8.29863 20.6358 8.42091 20.5501C9.79977 19.5325 11.0612 18.3647 12.1818 17.0683C14.6773 14.1983 16 11.1728 16 8.31828C15.9976 6.19729 15.154 4.16386 13.6542 2.66409C12.1544 1.16432 10.121 0.320689 8 0.318283ZM8 19.0456C6.49727 17.8637 1.45455 13.5228 1.45455 8.31828C1.45455 6.58232 2.14415 4.91746 3.37166 3.68995C4.59918 2.46244 6.26404 1.77283 8 1.77283C9.73596 1.77283 11.4008 2.46244 12.6283 3.68995C13.8558 4.91746 14.5455 6.58232 14.5455 8.31828C14.5455 13.521 9.50273 17.8637 8 19.0456Z" fill="#81F2DC"/>
</svg>
