<svg width="24" height="24" viewBox="0 0 24 24" fill="none" xmlns="http://www.w3.org/2000/svg">
<g id="PaperPlaneTilt">
<path id="Vector" d="M21.3113 2.68876C21.1226 2.50025 20.8872 2.36544 20.6291 2.29821C20.3711 2.23098 20.0997 2.23376 19.8431 2.30626H19.8291L1.83469 7.76625C1.54177 7.85049 1.28147 8.02196 1.08844 8.25784C0.895405 8.49371 0.778808 8.78278 0.754171 9.08658C0.729533 9.39037 0.798025 9.69445 0.950525 9.95835C1.10303 10.2222 1.3323 10.4334 1.60781 10.5638L9.63469 14.3653L13.4363 22.3922C13.5563 22.6492 13.7473 22.8666 13.9869 23.0186C14.2264 23.1706 14.5044 23.2509 14.7881 23.25C14.8313 23.25 14.8744 23.2481 14.9175 23.2444C15.2202 23.2199 15.5082 23.1034 15.7428 22.9105C15.9774 22.7176 16.1474 22.4576 16.23 22.1653L21.6863 4.17094C21.6863 4.16626 21.6863 4.16157 21.6863 4.15688C21.7597 3.90091 21.7637 3.63 21.6978 3.37199C21.6319 3.11397 21.4985 2.87815 21.3113 2.68876ZM14.7966 21.7359L14.7919 21.7491L11.1019 13.9594L15.5306 9.52969C15.6653 9.3879 15.7393 9.19908 15.7368 9.00351C15.7343 8.80794 15.6555 8.62108 15.5172 8.48278C15.3789 8.34448 15.1921 8.26568 14.9965 8.26317C14.8009 8.26067 14.6121 8.33466 14.4703 8.46938L10.0406 12.8981L2.25 9.20813H2.26312L20.25 3.75001L14.7966 21.7359Z" fill="url(#paint0_linear_833_82)"/>
</g>
<defs>
<linearGradient id="paint0_linear_833_82" x1="0.749261" y1="12.7499" x2="21.7444" y2="12.7499" gradientUnits="userSpaceOnUse">
<stop stop-color="#81F2DC"/>
<stop offset="1" stop-color="#B3F79A"/>
</linearGradient>
</defs>
</svg>
