<svg width="16" height="16" viewBox="0 0 16 16" fill="none" xmlns="http://www.w3.org/2000/svg">
<path id="Vector" d="M8 0C6.41775 0 4.87103 0.469192 3.55544 1.34824C2.23985 2.22729 1.21447 3.47672 0.608967 4.93853C0.00346628 6.40034 -0.15496 8.00887 0.153721 9.56072C0.462403 11.1126 1.22433 12.538 2.34315 13.6569C3.46197 14.7757 4.88743 15.5376 6.43928 15.8463C7.99113 16.155 9.59966 15.9965 11.0615 15.391C12.5233 14.7855 13.7727 13.7602 14.6518 12.4446C15.5308 11.129 16 9.58225 16 8C15.9978 5.87895 15.1542 3.84542 13.6544 2.34562C12.1546 0.845814 10.121 0.00223986 8 0ZM8 14.7692C6.66117 14.7692 5.35241 14.3722 4.23922 13.6284C3.12603 12.8846 2.2584 11.8274 1.74605 10.5905C1.2337 9.35356 1.09965 7.99249 1.36084 6.67939C1.62203 5.36629 2.26674 4.16012 3.21343 3.21343C4.16013 2.26674 5.36629 1.62203 6.67939 1.36084C7.99249 1.09965 9.35356 1.2337 10.5905 1.74605C11.8274 2.25839 12.8846 3.12602 13.6284 4.23922C14.3722 5.35241 14.7692 6.66117 14.7692 8C14.7672 9.79468 14.0534 11.5153 12.7843 12.7843C11.5153 14.0534 9.79469 14.7672 8 14.7692ZM10.8031 7.48769L7.11077 5.02615C7.01807 4.9643 6.91032 4.92879 6.79901 4.9234C6.68771 4.918 6.57702 4.94294 6.47878 4.99553C6.38054 5.04813 6.29842 5.12642 6.24119 5.22204C6.18396 5.31766 6.15378 5.42702 6.15385 5.53846V10.4615C6.15378 10.573 6.18396 10.6823 6.24119 10.778C6.29842 10.8736 6.38054 10.9519 6.47878 11.0045C6.57702 11.0571 6.68771 11.082 6.79901 11.0766C6.91032 11.0712 7.01807 11.0357 7.11077 10.9738L10.8031 8.51231C10.8875 8.45613 10.9567 8.37997 11.0046 8.29059C11.0525 8.20122 11.0775 8.10139 11.0775 8C11.0775 7.8986 11.0525 7.79878 11.0046 7.7094C10.9567 7.62003 10.8875 7.54386 10.8031 7.48769ZM7.38462 9.31154V6.69231L9.35231 8L7.38462 9.31154Z" fill="url(#paint0_linear_833_97)"/>
<defs>
<linearGradient id="paint0_linear_833_97" x1="0" y1="8" x2="16" y2="8" gradientUnits="userSpaceOnUse">
<stop stop-color="#81F2DC"/>
<stop offset="1" stop-color="#B3F79A"/>
</linearGradient>
</defs>
</svg>
